<svg xmlns="http://www.w3.org/2000/svg" viewBox="0 0 500 500"><g id="freepik--background-complete--inject-1"><rect x="416.78" y="414.69" width="33.12" height="0.25" style="fill:#ebebeb"></rect><rect x="322.53" y="417.41" width="8.69" height="0.25" style="fill:#ebebeb"></rect><rect x="396.59" y="405.41" width="19.19" height="0.25" style="fill:#ebebeb"></rect><rect x="52.46" y="407.09" width="43.19" height="0.25" style="fill:#ebebeb"></rect><rect x="104.56" y="407.09" width="6.33" height="0.25" style="fill:#ebebeb"></rect><rect x="131.47" y="411.31" width="93.68" height="0.25" style="fill:#ebebeb"></rect><path d="M238.4,354H45.3a5.71,5.71,0,0,1-5.71-5.71V76.86a5.71,5.71,0,0,1,5.71-5.71H238.4a5.71,5.71,0,0,1,5.71,5.71V348.29A5.71,5.71,0,0,1,238.4,354ZM45.3,71.4a5.47,5.47,0,0,0-5.46,5.46V348.29a5.47,5.47,0,0,0,5.46,5.46H238.4a5.47,5.47,0,0,0,5.46-5.46V76.86a5.47,5.47,0,0,0-5.46-5.46Z" style="fill:#ebebeb"></path><path d="M454.7,354H261.6a5.71,5.71,0,0,1-5.71-5.71V76.86a5.71,5.71,0,0,1,5.71-5.71H454.7a5.71,5.71,0,0,1,5.71,5.71V348.29A5.71,5.71,0,0,1,454.7,354ZM261.6,71.4a5.47,5.47,0,0,0-5.46,5.46V348.29a5.47,5.47,0,0,0,5.46,5.46H454.7a5.47,5.47,0,0,0,5.46-5.46V76.86a5.47,5.47,0,0,0-5.46-5.46Z" style="fill:#ebebeb"></path><rect y="398.6" width="500" height="0.25" style="fill:#ebebeb"></rect><rect x="73.72" y="221.61" width="74.34" height="177.16" style="fill:#f0f0f0"></rect><rect x="83.89" y="231.18" width="7.5" height="11.25" style="fill:#fff"></rect><rect x="99.39" y="231.18" width="7.5" height="11.25" style="fill:#fff"></rect><rect x="114.89" y="231.18" width="7.5" height="11.25" style="fill:#fafafa"></rect><rect x="130.39" y="231.18" width="7.5" height="11.25" style="fill:#f5f5f5"></rect><rect x="83.89" y="247.95" width="7.5" height="11.25" style="fill:#fff"></rect><rect x="99.39" y="247.95" width="7.5" height="11.25" style="fill:#f5f5f5"></rect><rect x="114.89" y="247.95" width="7.5" height="11.25" style="fill:#f5f5f5"></rect><rect x="130.39" y="247.95" width="7.5" height="11.25" style="fill:#fff"></rect><rect x="83.89" y="264.72" width="7.5" height="11.25" style="fill:#fafafa"></rect><rect x="99.39" y="264.72" width="7.5" height="11.25" style="fill:#fff"></rect><rect x="114.89" y="264.72" width="7.5" height="11.25" style="fill:#fafafa"></rect><rect x="130.39" y="264.72" width="7.5" height="11.25" style="fill:#f5f5f5"></rect><rect x="83.89" y="281.48" width="7.5" height="11.25" style="fill:#fff"></rect><rect x="99.39" y="281.48" width="7.5" height="11.25" style="fill:#f5f5f5"></rect><rect x="114.89" y="281.48" width="7.5" height="11.25" style="fill:#fff"></rect><rect x="130.39" y="281.48" width="7.5" height="11.25" style="fill:#fff"></rect><rect x="83.89" y="298.25" width="7.5" height="11.25" style="fill:#fff"></rect><rect x="99.39" y="298.25" width="7.5" height="11.25" style="fill:#fafafa"></rect><rect x="114.89" y="298.25" width="7.5" height="11.25" style="fill:#f5f5f5"></rect><rect x="130.39" y="298.25" width="7.5" height="11.25" style="fill:#fafafa"></rect><rect x="83.89" y="315.01" width="7.5" height="11.25" style="fill:#f5f5f5"></rect><rect x="99.39" y="315.01" width="7.5" height="11.25" style="fill:#fff"></rect><rect x="114.89" y="315.01" width="7.5" height="11.25" style="fill:#fff"></rect><rect x="130.39" y="315.01" width="7.5" height="11.25" style="fill:#fff"></rect><rect x="83.89" y="331.78" width="7.5" height="11.25" style="fill:#fafafa"></rect><rect x="99.39" y="331.78" width="7.5" height="11.25" style="fill:#fff"></rect><rect x="114.89" y="331.78" width="7.5" height="11.25" style="fill:#f5f5f5"></rect><rect x="130.39" y="331.78" width="7.5" height="11.25" style="fill:#fff"></rect><rect x="83.89" y="348.55" width="7.5" height="11.25" style="fill:#fff"></rect><rect x="99.39" y="348.55" width="7.5" height="11.25" style="fill:#f5f5f5"></rect><rect x="114.89" y="348.55" width="7.5" height="11.25" style="fill:#fafafa"></rect><rect x="130.39" y="348.55" width="7.5" height="11.25" style="fill:#fff"></rect><rect x="83.89" y="365.31" width="7.5" height="11.25" style="fill:#fff"></rect><rect x="99.39" y="365.31" width="7.5" height="11.25" style="fill:#fff"></rect><rect x="114.89" y="365.31" width="7.5" height="11.25" style="fill:#fff"></rect><rect x="130.39" y="365.31" width="7.5" height="11.25" style="fill:#f5f5f5"></rect><rect x="369.44" y="187.64" width="68.92" height="211.14" style="fill:#f5f5f5"></rect><rect x="378.87" y="199.05" width="6.95" height="13.41" style="fill:#fff"></rect><rect x="393.24" y="199.05" width="6.95" height="13.41" style="fill:#fff"></rect><rect x="407.61" y="199.05" width="6.95" height="13.41" style="fill:#fafafa"></rect><rect x="421.98" y="199.05" width="6.95" height="13.41" style="fill:#f5f5f5"></rect><rect x="378.87" y="219.03" width="6.95" height="13.41" style="fill:#fff"></rect><rect x="393.24" y="219.03" width="6.95" height="13.41" style="fill:#f5f5f5"></rect><rect x="407.61" y="219.03" width="6.95" height="13.41" style="fill:#f5f5f5"></rect><rect x="421.98" y="219.03" width="6.95" height="13.41" style="fill:#fff"></rect><rect x="378.87" y="239.01" width="6.95" height="13.41" style="fill:#fafafa"></rect><rect x="393.24" y="239.01" width="6.95" height="13.41" style="fill:#fff"></rect><rect x="407.61" y="239.01" width="6.95" height="13.41" style="fill:#fafafa"></rect><rect x="421.98" y="239.01" width="6.95" height="13.41" style="fill:#f5f5f5"></rect><rect x="378.87" y="258.99" width="6.95" height="13.41" style="fill:#fff"></rect><rect x="393.24" y="258.99" width="6.95" height="13.41" style="fill:#f5f5f5"></rect><rect x="407.61" y="258.99" width="6.95" height="13.41" style="fill:#fff"></rect><rect x="421.98" y="258.99" width="6.95" height="13.41" style="fill:#fff"></rect><rect x="378.87" y="278.97" width="6.95" height="13.41" style="fill:#fff"></rect><rect x="393.24" y="278.97" width="6.95" height="13.41" style="fill:#fafafa"></rect><rect x="407.61" y="278.97" width="6.95" height="13.41" style="fill:#f5f5f5"></rect><rect x="421.98" y="278.97" width="6.95" height="13.41" style="fill:#fafafa"></rect><rect x="378.87" y="298.95" width="6.95" height="13.41" style="fill:#f5f5f5"></rect><rect x="393.24" y="298.95" width="6.95" height="13.41" style="fill:#fff"></rect><rect x="407.61" y="298.95" width="6.95" height="13.41" style="fill:#fff"></rect><rect x="421.98" y="298.95" width="6.95" height="13.41" style="fill:#fff"></rect><rect x="378.87" y="318.93" width="6.95" height="13.41" style="fill:#fafafa"></rect><rect x="393.24" y="318.93" width="6.95" height="13.41" style="fill:#fff"></rect><rect x="407.61" y="318.93" width="6.95" height="13.41" style="fill:#f5f5f5"></rect><rect x="421.98" y="318.93" width="6.95" height="13.41" style="fill:#fff"></rect><rect x="378.87" y="338.91" width="6.95" height="13.41" style="fill:#fff"></rect><rect x="393.24" y="338.91" width="6.95" height="13.41" style="fill:#f5f5f5"></rect><rect x="407.61" y="338.91" width="6.95" height="13.41" style="fill:#fafafa"></rect><rect x="421.98" y="338.91" width="6.95" height="13.41" style="fill:#fff"></rect><rect x="378.87" y="358.9" width="6.95" height="13.41" style="fill:#fff"></rect><rect x="393.24" y="358.9" width="6.95" height="13.41" style="fill:#fff"></rect><rect x="407.61" y="358.9" width="6.95" height="13.41" style="fill:#fff"></rect><rect x="421.98" y="358.9" width="6.95" height="13.41" style="fill:#f5f5f5"></rect><rect x="169.53" y="284.01" width="72.44" height="114.77" style="fill:#ebebeb"></rect><rect x="179.44" y="290.21" width="7.31" height="7.29" style="fill:#fff"></rect><rect x="194.54" y="290.21" width="7.31" height="7.29" style="fill:#fff"></rect><rect x="209.65" y="290.21" width="7.31" height="7.29" style="fill:#fafafa"></rect><rect x="224.75" y="290.21" width="7.31" height="7.29" style="fill:#f5f5f5"></rect><rect x="179.44" y="301.07" width="7.31" height="7.29" style="fill:#fff"></rect><rect x="194.54" y="301.07" width="7.31" height="7.29" style="fill:#f5f5f5"></rect><rect x="209.65" y="301.07" width="7.31" height="7.29" style="fill:#f5f5f5"></rect><rect x="224.75" y="301.07" width="7.31" height="7.29" style="fill:#fff"></rect><rect x="179.44" y="311.93" width="7.31" height="7.29" style="fill:#fafafa"></rect><rect x="194.54" y="311.93" width="7.31" height="7.29" style="fill:#fff"></rect><rect x="209.65" y="311.93" width="7.31" height="7.29" style="fill:#fafafa"></rect><rect x="224.75" y="311.93" width="7.31" height="7.29" style="fill:#f5f5f5"></rect><rect x="179.44" y="322.8" width="7.31" height="7.29" style="fill:#fff"></rect><rect x="194.54" y="322.8" width="7.31" height="7.29" style="fill:#f5f5f5"></rect><rect x="209.65" y="322.8" width="7.31" height="7.29" style="fill:#fff"></rect><rect x="224.75" y="322.8" width="7.31" height="7.29" style="fill:#fff"></rect><rect x="179.44" y="333.66" width="7.31" height="7.29" style="fill:#fff"></rect><rect x="194.54" y="333.66" width="7.31" height="7.29" style="fill:#fafafa"></rect><rect x="209.65" y="333.66" width="7.31" height="7.29" style="fill:#f5f5f5"></rect><rect x="224.75" y="333.66" width="7.31" height="7.29" style="fill:#fafafa"></rect><rect x="179.44" y="344.52" width="7.31" height="7.29" style="fill:#f5f5f5"></rect><rect x="194.54" y="344.52" width="7.31" height="7.29" style="fill:#fff"></rect><rect x="209.65" y="344.52" width="7.31" height="7.29" style="fill:#fff"></rect><rect x="224.75" y="344.52" width="7.31" height="7.29" style="fill:#fff"></rect><rect x="179.44" y="355.38" width="7.31" height="7.29" style="fill:#fafafa"></rect><rect x="194.54" y="355.38" width="7.31" height="7.29" style="fill:#fff"></rect><rect x="209.65" y="355.38" width="7.31" height="7.29" style="fill:#f5f5f5"></rect><rect x="224.75" y="355.38" width="7.31" height="7.29" style="fill:#fff"></rect><rect x="179.44" y="366.24" width="7.31" height="7.29" style="fill:#fff"></rect><rect x="194.54" y="366.24" width="7.31" height="7.29" style="fill:#f5f5f5"></rect><rect x="209.65" y="366.24" width="7.31" height="7.29" style="fill:#fafafa"></rect><rect x="224.75" y="366.24" width="7.31" height="7.29" style="fill:#fff"></rect><rect x="179.44" y="377.1" width="7.31" height="7.29" style="fill:#fff"></rect><rect x="194.54" y="377.1" width="7.31" height="7.29" style="fill:#fff"></rect><rect x="209.65" y="377.1" width="7.31" height="7.29" style="fill:#fff"></rect><rect x="224.75" y="377.1" width="7.31" height="7.29" style="fill:#f5f5f5"></rect><path d="M70.64,192.73c17.61,8.79,65.25,13.93,77.18-12.64C162,148.64,128.3,175,128.3,175s0-20.74-11.23-20.74c-15.31,0-14,19-14,19a14.69,14.69,0,0,0-14.9-7.41C77.4,167,83.67,181,83.67,181S56.61,185.72,70.64,192.73Z" style="fill:#f0f0f0"></path><path d="M177.9,148.31c20,6.89,74.9,8.44,79.21-20.33,5.12-34.14-24.62-12.28-24.62-12.28s-.26-16-14-17.55-13.55,16.56-13.55,16.56-24.67-15.1-22.32,13.94C182.61,128.65,144.12,136.64,177.9,148.31Z" style="fill:#f5f5f5"></path><path d="M307.87,150.81c20.95,7.23,78.62,8.86,83.15-21.34,5.37-35.84-25.84-12.89-25.84-12.89s-.27-16.78-14.71-18.42-14.23,17.38-14.23,17.38-25.9-15.85-23.42,14.63C312.82,130.17,272.41,138.56,307.87,150.81Z" style="fill:#ebebeb"></path><path d="M339.93,166.64c14.5,7.23,53.74,11.47,63.56-10.41,11.63-25.9-16.08-4.16-16.08-4.16s0-17.08-9.24-17.08c-12.61,0-11.55,15.62-11.55,15.62a12.11,12.11,0,0,0-12.27-6.11c-8.85.95-3.69,12.48-3.69,12.48S328.37,160.87,339.93,166.64Z" style="fill:#f5f5f5"></path></g><g id="freepik--Shadow--inject-1"><ellipse id="freepik--path--inject-1" cx="250" cy="431.89" rx="193.89" ry="11.32" style="fill:#f5f5f5"></ellipse></g><g id="freepik--Plant--inject-1"><path d="M74.58,418.91S70.14,421,69,417.43s-5.82.14-6.76-4.08-4.78-1.43-6.09-4.35-5.76-3-5.48-6,5.42.2,7.76-.66,3.84,4.15,6.94,4.15,4.12,5.91,6.14,5.21S75.15,416.05,74.58,418.91Z" style="fill:#407BFF"></path><path d="M74.58,418.91S70.14,421,69,417.43s-5.82.14-6.76-4.08-4.78-1.43-6.09-4.35-5.76-3-5.48-6,5.42.2,7.76-.66,3.84,4.15,6.94,4.15,4.12,5.91,6.14,5.21S75.15,416.05,74.58,418.91Z" style="fill:#fff;opacity:0.7000000000000001"></path><path d="M75.53,420.37s-9-10.3-20.67-16.52c0,0,6.14.87,21.5,16.17Z" style="fill:#407BFF"></path><path d="M75.53,420.37s-9-10.3-20.67-16.52c0,0,6.14.87,21.5,16.17Z" style="fill:#fff;opacity:0.2"></path><path d="M91.12,418.32s5.3-1.5,3.61-5.36,5-4.18,2.68-8.43,3-4.73,1.92-8.17,2.63-6.79.18-9.12-4.42,4.18-7,5.18-.18,6.34-2.78,8.63.89,8-1.34,8.93S88.53,416.33,91.12,418.32Z" style="fill:#407BFF"></path><path d="M91.12,418.32s5.3-1.5,3.61-5.36,5-4.18,2.68-8.43,3-4.73,1.92-8.17,2.63-6.79.18-9.12-4.42,4.18-7,5.18-.18,6.34-2.78,8.63.89,8-1.34,8.93S88.53,416.33,91.12,418.32Z" style="fill:#fff;opacity:0.7000000000000001"></path><path d="M91.39,420.25s0-15.32,5.23-29.2c0,0-4.53,5.28-6.19,29.52Z" style="fill:#407BFF"></path><path d="M91.39,420.25s0-15.32,5.23-29.2c0,0-4.53,5.28-6.19,29.52Z" style="fill:#fff;opacity:0.2"></path><path d="M79.82,418.13s-6.07,1.32-6.44-3.47-7.2-1.52-7.15-7.05-5.48-3.18-6.27-7.2-6.23-5.43-5-9.08,6.62,1.84,9.75,1.45,3.55,6.28,7.36,7.2,3.39,8.55,6.08,8.27S81.33,414.73,79.82,418.13Z" style="fill:#407BFF"></path><path d="M79.82,418.13s-6.07,1.32-6.44-3.47-7.2-1.52-7.15-7.05-5.48-3.18-6.27-7.2-6.23-5.43-5-9.08,6.62,1.84,9.75,1.45,3.55,6.28,7.36,7.2,3.39,8.55,6.08,8.27S81.33,414.73,79.82,418.13Z" style="fill:#fff;opacity:0.5"></path><path d="M80.58,420.22s-8.15-15.44-20.76-26.6c0,0,7.32,2.88,21.88,26.41Z" style="fill:#407BFF"></path><path d="M80.58,420.22s-8.15-15.44-20.76-26.6c0,0,7.32,2.88,21.88,26.41Z" style="fill:#fff;opacity:0.2"></path><path d="M106.65,419.14s3.42.68,3.61-2.34,4-1.14,4-4.62,3.08-2.13,3.51-4.68,3.49-3.57,2.8-5.84-3.71,1.33-5.48,1.16-2,4-4.12,4.71-1.88,5.47-3.39,5.36S105.78,417,106.65,419.14Z" style="fill:#407BFF"></path><path d="M106.65,419.14s3.42.68,3.61-2.34,4-1.14,4-4.62,3.08-2.13,3.51-4.68,3.49-3.57,2.8-5.84-3.71,1.33-5.48,1.16-2,4-4.12,4.71-1.88,5.47-3.39,5.36S105.78,417,106.65,419.14Z" style="fill:#fff;opacity:0.5"></path><path d="M106.23,420.47s4.53-9.91,11.59-17.24c0,0-4.1,2-12.23,17.15Z" style="fill:#407BFF"></path><path d="M106.23,420.47s4.53-9.91,11.59-17.24c0,0-4.1,2-12.23,17.15Z" style="fill:#fff;opacity:0.2"></path><path d="M101.53,417.36s2.71,1.5,5.67-6,5.39-16.32,9.74-19.44c0,0-6.61-.34-11.61,9S100.17,416.79,101.53,417.36Z" style="fill:#407BFF"></path><path d="M101.53,417.36s2.71,1.5,5.67-6,5.39-16.32,9.74-19.44c0,0-6.61-.34-11.61,9S100.17,416.79,101.53,417.36Z" style="fill:#fff;opacity:0.30000000000000004"></path><path d="M100.23,420.33c1.36-4.68,2.66-8.51,3.87-11.63a6.23,6.23,0,0,0-.38-3.31,3.42,3.42,0,0,1,.76,2.34c1-2.52,1.93-4.55,2.76-6.17.25-1.65-.34-2.1-.34-2.1.62.16.73.83.7,1.41,2.3-4.29,3.75-5.39,3.75-5.39-.57.87-1.1,1.75-1.61,2.63a4.89,4.89,0,0,1,2.48-1,6.62,6.62,0,0,0-2.91,1.78c-1,1.82-1.93,3.66-2.74,5.45a7.92,7.92,0,0,1,3.21-2.37,9.85,9.85,0,0,0-3.75,3.58c-.91,2.11-1.68,4.13-2.33,6a5.71,5.71,0,0,1,3.64-1.63,7.74,7.74,0,0,0-3.88,2.35,79.74,79.74,0,0,0-2.33,8Z" style="fill:#407BFF"></path><path d="M109.78,402h0Z" style="fill:#407BFF"></path><g style="opacity:0.1"><path d="M100.23,420.33c1.36-4.68,2.66-8.51,3.87-11.63a6.23,6.23,0,0,0-.38-3.31,3.42,3.42,0,0,1,.76,2.34c1-2.52,1.93-4.55,2.76-6.17.25-1.65-.34-2.1-.34-2.1.62.16.73.83.7,1.41,2.3-4.29,3.75-5.39,3.75-5.39-.57.87-1.1,1.75-1.61,2.63a4.89,4.89,0,0,1,2.48-1,6.62,6.62,0,0,0-2.91,1.78c-1,1.82-1.93,3.66-2.74,5.45a7.92,7.92,0,0,1,3.21-2.37,9.85,9.85,0,0,0-3.75,3.58c-.91,2.11-1.68,4.13-2.33,6a5.71,5.71,0,0,1,3.64-1.63,7.74,7.74,0,0,0-3.88,2.35,79.74,79.74,0,0,0-2.33,8Z" style="fill:#fff"></path><path d="M109.78,402h0Z" style="fill:#fff"></path></g><path d="M96.89,417.35s2.92,1,4.61-6.87,2.67-17,6.45-20.76c0,0-6.57.74-10,10.75S95.45,417,96.89,417.35Z" style="fill:#407BFF"></path><path d="M96.89,417.35s2.92,1,4.61-6.87,2.67-17,6.45-20.76c0,0-6.57.74-10,10.75S95.45,417,96.89,417.35Z" style="fill:#fff;opacity:0.6000000000000001"></path><path d="M96.09,420.5c.58-4.84,1.24-8.83,1.92-12.1a6.23,6.23,0,0,0-.91-3.21,3.37,3.37,0,0,1,1.13,2.19c.58-2.65,1.17-4.81,1.73-6.54,0-1.67-.68-2-.68-2,.64.06.86.71.93,1.29,1.56-4.61,2.81-5.93,2.81-5.93-.41.94-.79,1.9-1.15,2.86a4.78,4.78,0,0,1,2.27-1.4,6.58,6.58,0,0,0-2.58,2.22c-.71,2-1.31,3.92-1.82,5.83a8,8,0,0,1,2.79-2.86A9.72,9.72,0,0,0,99.41,405c-.56,2.23-1,4.35-1.33,6.27a5.74,5.74,0,0,1,3.33-2.21A7.82,7.82,0,0,0,98,412a80.23,80.23,0,0,0-1,8.29Z" style="fill:#407BFF"></path><path d="M102.53,400.83l0,0Z" style="fill:#407BFF"></path><g style="opacity:0.2"><path d="M96.09,420.5c.58-4.84,1.24-8.83,1.92-12.1a6.23,6.23,0,0,0-.91-3.21,3.37,3.37,0,0,1,1.13,2.19c.58-2.65,1.17-4.81,1.73-6.54,0-1.67-.68-2-.68-2,.64.06.86.71.93,1.29,1.56-4.61,2.81-5.93,2.81-5.93-.41.94-.79,1.9-1.15,2.86a4.78,4.78,0,0,1,2.27-1.4,6.58,6.58,0,0,0-2.58,2.22c-.71,2-1.31,3.92-1.82,5.83a8,8,0,0,1,2.79-2.86A9.72,9.72,0,0,0,99.41,405c-.56,2.23-1,4.35-1.33,6.27a5.74,5.74,0,0,1,3.33-2.21A7.82,7.82,0,0,0,98,412a80.23,80.23,0,0,0-1,8.29Z" style="fill:#fff"></path><path d="M102.53,400.83l0,0Z" style="fill:#fff"></path></g><path d="M85,417.08s-3.54,1.38-5.88-8.27-3.85-20.72-8.61-25.23c0,0,8.08.69,12.6,12.85S86.77,416.62,85,417.08Z" style="fill:#407BFF"></path><path d="M85,417.08s-3.54,1.38-5.88-8.27-3.85-20.72-8.61-25.23c0,0,8.08.69,12.6,12.85S86.77,416.62,85,417.08Z" style="fill:#fff;opacity:0.30000000000000004"></path><path d="M86.11,420.9c-.88-5.91-1.83-10.77-2.77-14.76a7.66,7.66,0,0,1,1-4A4.11,4.11,0,0,0,83,404.9c-.81-3.23-1.6-5.85-2.34-8,0-2,.77-2.49.77-2.49-.79.09-1,.89-1.1,1.6-2.07-5.6-3.65-7.17-3.65-7.17.54,1.15,1,2.3,1.52,3.47a5.85,5.85,0,0,0-2.84-1.64,8.05,8.05,0,0,1,3.24,2.64c.93,2.38,1.73,4.76,2.42,7.07a9.65,9.65,0,0,0-3.51-3.4c.3.17,2.15,1.38,4,5,.76,2.71,1.36,5.29,1.84,7.63A7,7,0,0,0,79.2,407a9.49,9.49,0,0,1,4.33,3.5A97.59,97.59,0,0,1,85,420.64Z" style="fill:#407BFF"></path><path d="M77.55,397l0,0Z" style="fill:#407BFF"></path><g style="opacity:0.1"><path d="M86.11,420.9c-.88-5.91-1.83-10.77-2.77-14.76a7.66,7.66,0,0,1,1-4A4.11,4.11,0,0,0,83,404.9c-.81-3.23-1.6-5.85-2.34-8,0-2,.77-2.49.77-2.49-.79.09-1,.89-1.1,1.6-2.07-5.6-3.65-7.17-3.65-7.17.54,1.15,1,2.3,1.52,3.47a5.85,5.85,0,0,0-2.84-1.64,8.05,8.05,0,0,1,3.24,2.64c.93,2.38,1.73,4.76,2.42,7.07a9.65,9.65,0,0,0-3.51-3.4c.3.17,2.15,1.38,4,5,.76,2.71,1.36,5.29,1.84,7.63A7,7,0,0,0,79.2,407a9.49,9.49,0,0,1,4.33,3.5A97.59,97.59,0,0,1,85,420.64Z" style="fill:#fff"></path><path d="M77.55,397l0,0Z" style="fill:#fff"></path></g><path d="M63.14,422.53l1.46,5.62a5,5,0,0,0,4.85,3.74h38.9a5,5,0,0,0,4.84-3.74l1.46-5.62a2.59,2.59,0,0,0-2.5-3.24H65.65A2.59,2.59,0,0,0,63.14,422.53Z" style="fill:#407BFF"></path></g><g id="freepik--Device--inject-1"><path d="M404,172.48h-24.9L360.5,431.89h24.9c6.84,0,12.88-6.79,13.48-15.16l16.38-229.09C415.85,179.27,410.79,172.48,404,172.48Z" style="fill:#407BFF"></path><path d="M381.49,431.89H249.81c-6.84,0-11.91-6.79-11.31-15.16l16.38-229.09c.6-8.37,6.64-15.16,13.48-15.16H400c6.84,0,11.9,6.79,11.3,15.16L395,416.73C394.37,425.1,388.33,431.89,381.49,431.89Z" style="fill:#407BFF"></path><path d="M381.49,431.89H249.81c-6.84,0-11.91-6.79-11.31-15.16l16.38-229.09c.6-8.37,6.64-15.16,13.48-15.16H400c6.84,0,11.9,6.79,11.3,15.16L395,416.73C394.37,425.1,388.33,431.89,381.49,431.89Z" style="fill:#fff;opacity:0.6000000000000001"></path><path d="M399.74,176.67H268.06c-4.95,0-9.32,4.92-9.75,11L241.93,416.73c-.44,6,3.23,11,8.18,11H381.79c4.94,0,9.32-4.92,9.75-11l16.38-229.09C408.35,181.59,404.68,176.67,399.74,176.67Z" style="fill:#fff;opacity:0.7000000000000001"></path><path d="M319.49,422.81h-6.38c-1.77,0-3.07-1.75-2.92-3.9h0c.16-2.16,1.71-3.91,3.48-3.91h6.38c1.76,0,3.07,1.75,2.91,3.91h0C322.81,421.06,321.25,422.81,319.49,422.81Z" style="fill:#407BFF"></path><path d="M319.49,422.81h-6.38c-1.77,0-3.07-1.75-2.92-3.9h0c.16-2.16,1.71-3.91,3.48-3.91h6.38c1.76,0,3.07,1.75,2.91,3.91h0C322.81,421.06,321.25,422.81,319.49,422.81Z" style="fill:#fff;opacity:0.6000000000000001"></path><path d="M335.31,183.35a2.33,2.33,0,0,1-2.05,2.31,2,2,0,0,1-1.73-2.31,2.32,2.32,0,0,1,2.06-2.31A2,2,0,0,1,335.31,183.35Z" style="opacity:0.2"></path><polygon points="390.51 409.87 243.94 409.87 259.34 194.5 405.91 194.5 390.51 409.87" style="fill:#407BFF"></polygon><polygon points="390.51 409.87 243.94 409.87 259.34 194.5 405.91 194.5 390.51 409.87" style="fill:#fff;opacity:0.30000000000000004"></polygon><polygon points="390.51 409.87 243.94 409.87 405.91 194.5 390.51 409.87" style="fill:#407BFF"></polygon><path d="M280.88,331.92h-9.94a5.29,5.29,0,0,1-4.27-2.25,8.08,8.08,0,0,1-1.46-5.44l.87-12.15c.29-4.13,3.27-7.48,6.64-7.48h9.94a5.29,5.29,0,0,1,4.27,2.25,8.06,8.06,0,0,1,1.46,5.43l-.87,12.16C287.23,328.56,284.25,331.92,280.88,331.92ZM272.72,307c-2.38,0-4.49,2.38-4.7,5.29l-.87,12.16a5.44,5.44,0,0,0,1,3.61,3.49,3.49,0,0,0,2.83,1.47h9.94c2.38,0,4.49-2.37,4.7-5.29l.86-12.15a5.36,5.36,0,0,0-.95-3.61,3.52,3.52,0,0,0-2.83-1.48Z" style="fill:#263238"></path><path d="M283.77,291.49h-9.94a5.29,5.29,0,0,1-4.27-2.25,8.06,8.06,0,0,1-1.46-5.43l.87-12.16c.29-4.12,3.27-7.48,6.64-7.48h9.94a5.29,5.29,0,0,1,4.27,2.25,8.08,8.08,0,0,1,1.46,5.44L290.41,284C290.12,288.14,287.14,291.49,283.77,291.49Zm-8.16-24.92c-2.38,0-4.49,2.37-4.7,5.29L270,284a5.42,5.42,0,0,0,1,3.61,3.5,3.5,0,0,0,2.83,1.48h9.94c2.38,0,4.49-2.38,4.7-5.29l.87-12.16a5.45,5.45,0,0,0-1-3.61,3.49,3.49,0,0,0-2.83-1.47Z" style="fill:#263238"></path><path d="M278,372.34h-9.94a5.28,5.28,0,0,1-4.27-2.24,8.08,8.08,0,0,1-1.46-5.44l.87-12.16c.29-4.12,3.27-7.47,6.64-7.47h9.94a5.29,5.29,0,0,1,4.27,2.25,8,8,0,0,1,1.46,5.43l-.87,12.16C284.34,369,281.36,372.34,278,372.34Zm-8.16-24.92c-2.38,0-4.49,2.37-4.7,5.29l-.87,12.16a5.45,5.45,0,0,0,1,3.61,3.49,3.49,0,0,0,2.83,1.47H278c2.38,0,4.49-2.37,4.7-5.29l.86-12.16a5.39,5.39,0,0,0-.95-3.61,3.5,3.5,0,0,0-2.83-1.47Z" style="fill:#263238"></path><path d="M280.7,233.66h-5.09l-1.17,2.88h-2.6l5.84-13.4h2.51l3.93,13.4h-2.66Zm-.63-2.35-1.37-5.13-2.1,5.13Z" style="fill:#fff"></path><path d="M286.22,223.14h5a5.58,5.58,0,0,1,3.09.83,5,5,0,0,1,2,2.34,7.36,7.36,0,0,1,.51,3.53,8.18,8.18,0,0,1-1,3.52,6.21,6.21,0,0,1-5.51,3.18h-5ZM290.3,234a3.55,3.55,0,0,0,2.7-1.12,4.79,4.79,0,0,0,1.19-3,4.18,4.18,0,0,0-.76-3,3.05,3.05,0,0,0-2.54-1.12h-2.31L288,234Z" style="fill:#fff"></path><path d="M309.32,223.14l-5.7,13.4h-2.5l-3.77-13.4h2.74l2.64,9.57,4.07-9.57Z" style="fill:#fff"></path><path d="M316.33,233.66h-5.09l-1.17,2.88h-2.6l5.84-13.4h2.5l3.94,13.4h-2.66Zm-.63-2.35-1.37-5.13-2.11,5.13Z" style="fill:#fff"></path><path d="M331.9,223.14l-1,13.4h-2.08L324,228.4l-.58,8.14h-2.51l1-13.4H324l4.86,8.13.58-8.13Z" style="fill:#fff"></path><path d="M336.58,225.66h-3.5l.18-2.52h9.54l-.18,2.52h-3.5l-.78,10.88H335.8Z" style="fill:#fff"></path><path d="M350.07,233.66H345l-1.18,2.88h-2.59l5.84-13.4h2.5l3.94,13.4h-2.66Zm-.63-2.35-1.37-5.13-2.1,5.13Z" style="fill:#fff"></path><path d="M362.38,229.63h2.31l-.38,5.43a7.11,7.11,0,0,1-2.16,1.27,7,7,0,0,1-2.39.44,5.23,5.23,0,0,1-3-.89,5.56,5.56,0,0,1-2-2.47,7.82,7.82,0,0,1-.52-3.57,8.49,8.49,0,0,1,1-3.57,6.68,6.68,0,0,1,2.33-2.47,5.85,5.85,0,0,1,3.16-.89,5.38,5.38,0,0,1,2.57.59,4.77,4.77,0,0,1,1.85,1.72l-1.76,1.84a3.19,3.19,0,0,0-2.72-1.51,3.56,3.56,0,0,0-1.9.53,3.92,3.92,0,0,0-1.38,1.52,5.62,5.62,0,0,0-.61,2.24,5,5,0,0,0,.3,2.22,3.24,3.24,0,0,0,1.15,1.52,3,3,0,0,0,1.8.54,3.73,3.73,0,0,0,2-.57Z" style="fill:#fff"></path><path d="M375.21,234.05l-.18,2.49h-8.48l1-13.4h8.27l-.18,2.48h-5.75l-.21,2.91h5.08l-.17,2.42h-5.08l-.23,3.1Z" style="fill:#fff"></path><path d="M378.15,236.34a5.06,5.06,0,0,1-1.87-1.12l1-2.34a5.34,5.34,0,0,0,3.51,1.4,2.76,2.76,0,0,0,1.62-.39,1.38,1.38,0,0,0,.6-1,1,1,0,0,0-.25-.79,2.07,2.07,0,0,0-.75-.51,11.46,11.46,0,0,0-1.26-.42,14.56,14.56,0,0,1-2-.73,3,3,0,0,1-1.28-1.17,3.49,3.49,0,0,1-.42-2.14,4.68,4.68,0,0,1,.67-2.12,4.1,4.1,0,0,1,1.66-1.5,5.58,5.58,0,0,1,2.58-.55,6.88,6.88,0,0,1,2,.3,5.21,5.21,0,0,1,1.69.88l-.95,2.36a5,5,0,0,0-3-1.06,2.57,2.57,0,0,0-1.6.43,1.47,1.47,0,0,0-.59,1.11,1,1,0,0,0,.51,1,7.9,7.9,0,0,0,1.75.66,14.37,14.37,0,0,1,2,.73,3,3,0,0,1,1.29,1.15,3.34,3.34,0,0,1,.42,2.12,4.49,4.49,0,0,1-.67,2.1,4.23,4.23,0,0,1-1.68,1.5,5.65,5.65,0,0,1-2.59.56A7.3,7.3,0,0,1,378.15,236.34Z" style="fill:#fff"></path><path d="M335.4,282.94H303.84c-2.31,0-4-2.29-3.81-5.11h0c.2-2.82,2.23-5.11,4.54-5.11h31.56c2.31,0,4,2.29,3.81,5.11h0C339.74,280.65,337.71,282.94,335.4,282.94Z" style="fill:#407BFF"></path><path d="M380.34,282.94H348.77c-2.31,0-4-2.29-3.81-5.11h0c.2-2.82,2.23-5.11,4.54-5.11h31.57c2.3,0,4,2.29,3.81,5.11h0C384.67,280.65,382.64,282.94,380.34,282.94Z" style="fill:#407BFF"></path><g style="opacity:0.7000000000000001"><path d="M335.4,282.94H303.84c-2.31,0-4-2.29-3.81-5.11h0c.2-2.82,2.23-5.11,4.54-5.11h31.56c2.31,0,4,2.29,3.81,5.11h0C339.74,280.65,337.71,282.94,335.4,282.94Z" style="fill:#fff"></path><path d="M380.34,282.94H348.77c-2.31,0-4-2.29-3.81-5.11h0c.2-2.82,2.23-5.11,4.54-5.11h31.57c2.3,0,4,2.29,3.81,5.11h0C384.67,280.65,382.64,282.94,380.34,282.94Z" style="fill:#fff"></path></g><path d="M318.62,323.37H301c-2.31,0-4-2.29-3.81-5.11h0c.2-2.82,2.23-5.11,4.54-5.11h17.67c2.3,0,4,2.29,3.8,5.11h0C323,321.08,320.92,323.37,318.62,323.37Z" style="fill:#407BFF"></path><path d="M370.6,323.37H332c-2.31,0-4-2.29-3.81-5.11h0c.2-2.82,2.23-5.11,4.54-5.11h38.62c2.31,0,4,2.29,3.81,5.11h0C374.94,321.08,372.91,323.37,370.6,323.37Z" style="fill:#407BFF"></path><g style="opacity:0.7000000000000001"><path d="M318.62,323.37H301c-2.31,0-4-2.29-3.81-5.11h0c.2-2.82,2.23-5.11,4.54-5.11h17.67c2.3,0,4,2.29,3.8,5.11h0C323,321.08,320.92,323.37,318.62,323.37Z" style="fill:#fff"></path><path d="M370.6,323.37H332c-2.31,0-4-2.29-3.81-5.11h0c.2-2.82,2.23-5.11,4.54-5.11h38.62c2.31,0,4,2.29,3.81,5.11h0C374.94,321.08,372.91,323.37,370.6,323.37Z" style="fill:#fff"></path></g><path d="M315.72,363.79H298.05c-2.3,0-4-2.28-3.8-5.1h0c.2-2.82,2.23-5.11,4.54-5.11h17.67c2.3,0,4,2.29,3.8,5.11h0C320.06,361.51,318,363.79,315.72,363.79Z" style="fill:#407BFF"></path><path d="M368.79,363.79h-1.72c-2.31,0-4-2.28-3.81-5.1h0c.2-2.82,2.23-5.11,4.54-5.11h1.72c2.31,0,4,2.29,3.81,5.11h0C373.13,361.51,371.1,363.79,368.79,363.79Z" style="fill:#407BFF"></path><path d="M354.6,363.79H329.09c-2.31,0-4-2.28-3.81-5.1h0c.2-2.82,2.23-5.11,4.54-5.11h25.51c2.3,0,4,2.29,3.81,5.11h0C358.94,361.51,356.9,363.79,354.6,363.79Z" style="fill:#407BFF"></path><g style="opacity:0.7000000000000001"><path d="M315.72,363.79H298.05c-2.3,0-4-2.28-3.8-5.1h0c.2-2.82,2.23-5.11,4.54-5.11h17.67c2.3,0,4,2.29,3.8,5.11h0C320.06,361.51,318,363.79,315.72,363.79Z" style="fill:#fff"></path><path d="M368.79,363.79h-1.72c-2.31,0-4-2.28-3.81-5.1h0c.2-2.82,2.23-5.11,4.54-5.11h1.72c2.31,0,4,2.29,3.81,5.11h0C373.13,361.51,371.1,363.79,368.79,363.79Z" style="fill:#fff"></path><path d="M354.6,363.79H329.09c-2.31,0-4-2.28-3.81-5.1h0c.2-2.82,2.23-5.11,4.54-5.11h25.51c2.3,0,4,2.29,3.81,5.11h0C358.94,361.51,356.9,363.79,354.6,363.79Z" style="fill:#fff"></path></g><path d="M300.72,258.57a64.49,64.49,0,0,0-22.27,17.1,21,21,0,0,0-11.89-6.27l-.1,0a.55.55,0,0,0-.58.52l-.37,2.61a.55.55,0,0,0,.26.59h0a22.69,22.69,0,0,1,11,11.93h0a.46.46,0,0,0,.86,0l0-.07c6-10.24,14.19-18.82,23.19-24.15l0,0a.7.7,0,0,0,.31-.49l.16-1.11c.06-.45-.28-.79-.64-.62Z" style="fill:#fff"></path><path d="M297.83,299a64.4,64.4,0,0,0-22.27,17.1,21,21,0,0,0-11.89-6.27l-.1,0a.55.55,0,0,0-.58.52l-.37,2.61a.55.55,0,0,0,.26.59h0a22.69,22.69,0,0,1,11,11.93h0a.46.46,0,0,0,.86,0l0-.07c6-10.24,14.19-18.82,23.19-24.16l0,0a.7.7,0,0,0,.31-.49l.16-1.11c.06-.46-.28-.79-.64-.62Z" style="fill:#fff"></path><path d="M294.94,339.43a64.37,64.37,0,0,0-22.27,17.09,21.07,21.07,0,0,0-11.89-6.26l-.1,0a.55.55,0,0,0-.58.52l-.37,2.61a.55.55,0,0,0,.26.59h0a22.59,22.59,0,0,1,11,11.93h0a.47.47,0,0,0,.87,0l0-.07c6-10.24,14.19-18.82,23.18-24.16l.05,0a.68.68,0,0,0,.31-.49l.16-1.11c.06-.45-.28-.78-.64-.61Z" style="fill:#fff"></path></g><g id="freepik--Character--inject-1"><path d="M260,124.55a95.33,95.33,0,0,0-190.66,0c0,43.24,45,84.21,68.24,121.68,3.25,5.25,0,19.58,0,19.58h54.18s-3.25-14.33,0-19.58C215,208.76,260,167.79,260,124.55Z" style="fill:#407BFF"></path><path d="M260,124.55a95.33,95.33,0,0,0-190.66,0c0,43.24,45,84.21,68.24,121.68,3.25,5.25,0,19.58,0,19.58h54.18s-3.25-14.33,0-19.58C215,208.76,260,167.79,260,124.55Z" style="fill:#fff;opacity:0.5"></path><path d="M164.67,265.81H148.41s2-14.33,0-19.58c-13.92-37.47-40.94-78.44-40.94-121.68,0-52.64,25.61-95.33,57.2-95.33s57.2,42.69,57.2,95.33c0,43.24-27,84.21-41,121.68-1.95,5.25,0,19.58,0,19.58Z" style="fill:#fff;opacity:0.30000000000000004"></path><path d="M164.67,265.81h-5.42s.65-14.33,0-19.58c-4.64-37.47-13.65-78.44-13.65-121.68,0-52.64,8.54-95.33,19.07-95.33s19.07,42.69,19.07,95.33c0,43.24-9,84.21-13.65,121.68-.65,5.25,0,19.58,0,19.58Z" style="fill:#fff;opacity:0.5"></path><rect x="135.43" y="262.73" width="58.49" height="6.85" rx="2.25" style="fill:#407BFF"></rect><rect x="135.43" y="262.73" width="58.49" height="6.85" rx="2.25" style="opacity:0.2"></rect><rect x="74.98" y="156.75" width="179.38" height="6.85" rx="2.25" style="fill:#407BFF"></rect><rect x="74.98" y="156.75" width="179.38" height="6.85" rx="2.25" style="opacity:0.2"></rect><circle cx="164.67" cy="110.8" r="38.52" style="fill:#407BFF"></circle><circle cx="164.67" cy="110.8" r="38.52" style="fill:#fff;opacity:0.2"></circle><g style="opacity:0.8"><path d="M164.67,146.3a35.5,35.5,0,1,1,35.5-35.5A35.54,35.54,0,0,1,164.67,146.3Zm0-66.72a31.22,31.22,0,1,0,31.22,31.22A31.26,31.26,0,0,0,164.67,79.58Z" style="fill:#fff"></path></g><path d="M186.22,98.15,166.3,96.72l-.26.13.73-3.38h0l.85-3.92a1.15,1.15,0,0,0,0-.26c0-1,.06-7-1.35-8.42-.73-.73-3.23-.89-4.78-.92a1.34,1.34,0,0,0-1.37,1.21c-.25,2.66-.9,8.93-1.6,11.28a89.68,89.68,0,0,1-4.78,10.37L151,104.13a2,2,0,0,0-2-1.88h-7.67a2.06,2.06,0,0,0-2.06,2.06v25.14a2.07,2.07,0,0,0,2.06,2.07H149a2.05,2.05,0,0,0,2-1.5h30.22a4.13,4.13,0,0,0,4.06-3.33L190,103.1A4.15,4.15,0,0,0,186.22,98.15Z" style="opacity:0.2"></path><path d="M152.56,102.55s5-9.32,6-12.67c.7-2.36,1.35-8.63,1.6-11.28a1.34,1.34,0,0,1,1.37-1.22c1.55,0,4,.2,4.78.93,1.41,1.4,1.36,7.44,1.35,8.41a1.09,1.09,0,0,1,0,.26l-2.44,11.24Z" style="fill:#407BFF"></path><path d="M152.56,102.55s5-9.32,6-12.67c.7-2.36,1.35-8.63,1.6-11.28a1.34,1.34,0,0,1,1.37-1.22c1.55,0,4,.2,4.78.93,1.41,1.4,1.36,7.44,1.35,8.41a1.09,1.09,0,0,1,0,.26l-2.44,11.24Z" style="fill:#fff;opacity:0.9"></path><polygon points="166.77 90.91 155.06 100.49 157.93 100.71 165.18 98.22 166.77 90.91" style="opacity:0.2"></polygon><path d="M150,102.07l16.31-7.91,19.92,1.43a4.14,4.14,0,0,1,3.77,4.94l-4.74,23.59a4.13,4.13,0,0,1-4.06,3.33H149.14Z" style="fill:#407BFF"></path><path d="M150,102.07l16.31-7.91,19.92,1.43a4.14,4.14,0,0,1,3.77,4.94l-4.74,23.59a4.13,4.13,0,0,1-4.06,3.33H149.14Z" style="fill:#fff;opacity:0.9"></path><rect x="139.27" y="99.68" width="11.8" height="29.27" rx="2.41" style="fill:#407BFF"></rect><rect x="139.27" y="99.68" width="11.8" height="29.27" rx="2.41" style="opacity:0.2"></rect><polygon points="249.28 163.6 190.78 332.05 192.12 332.05 250.62 163.6 249.28 163.6"></polygon><polygon points="78.72 163.6 137.22 332.05 138.55 332.05 80.06 163.6 78.72 163.6"></polygon><path d="M198.36,268.55c.41,2.33.87,4.79,1.37,7.14a63.14,63.14,0,0,0,1.81,6.84,16.63,16.63,0,0,0,1.18,2.75l.14.23a.88.88,0,0,1,.12.17.55.55,0,0,1,.07.09s-.05,0-.08,0l-.07,0s.07.1.23.18a3.7,3.7,0,0,0,.59.26,29.39,29.39,0,0,0,3.25.9c1.17.28,2.4.53,3.59.83l.08,3.58a25.62,25.62,0,0,1-4,.66,19.54,19.54,0,0,1-4.25,0,10.87,10.87,0,0,1-1.23-.23,6.65,6.65,0,0,1-1.51-.56,4.13,4.13,0,0,1-.47-.28c-.16-.11-.37-.26-.45-.33l-.6-.57-.5-.56-.41-.53a20.43,20.43,0,0,1-2.15-4,53.13,53.13,0,0,1-2.41-7.69c-.31-1.27-.59-2.55-.83-3.83s-.45-2.54-.63-3.89Z" style="fill:#803e3c"></path><path d="M190.54,268.08c-1.95,4.13,2.65,13.67,2.65,13.67l7.95-3.82a20,20,0,0,0-2.67-9.76c-2.12-3.76-5.49-5.1-8-3.89C189.45,264.76,191.15,266.8,190.54,268.08Z" style="fill:#407BFF"></path><path d="M192.9,273.71c-2.23-1.45-3.09-.59-3.88.33a52.19,52.19,0,0,0,4.17,7.71l3.37-1.62C196,277.51,194.53,274.77,192.9,273.71Z" style="opacity:0.2"></path><path d="M209.34,288.2l4.29-2.27.23,5.38s-4,1.8-4.8-.28Z" style="fill:#7f3e3b"></path><polygon points="218.43 286.21 217.05 290.9 213.85 291.31 213.63 285.93 218.43 286.21" style="fill:#7f3e3b"></polygon><polygon points="191.63 281.45 201.91 276.53 202.34 278.9 192.9 283.06 191.63 281.45" style="fill:#407BFF"></polygon><polygon points="191.63 281.45 201.91 276.53 202.34 278.9 192.9 283.06 191.63 281.45" style="fill:#fff;opacity:0.7000000000000001"></polygon><polygon points="177.77 408.07 182.53 407.7 183.05 396.62 178.29 396.99 177.77 408.07" style="fill:#7f3e3b"></polygon><polygon points="142.07 404.31 146.66 405.59 150.92 395.33 146.33 394.05 142.07 404.31" style="fill:#7f3e3b"></polygon><path d="M147.41,405.23l-5.6-1.56a.43.43,0,0,0-.48.2l-2.08,3.82a.69.69,0,0,0,.44,1c1.8.47,3.15.73,5.42,1.36,1.39.39,5.56,1.71,7.48,2.25s2.73-1.3,2-1.69c-3.31-1.76-5.67-3.56-6.51-4.89A1.16,1.16,0,0,0,147.41,405.23Z" style="fill:#263238"></path><path d="M182.93,406.87l-5.2-.32a.43.43,0,0,0-.43.3L176.07,411a.69.69,0,0,0,.62.89c1.88.08,4.6.13,7,.28,2.76.16,4.52.08,7.76.28,2,.12,2.64-1.82,1.83-2-3.67-1-6.1-.93-9.18-3.1A2.17,2.17,0,0,0,182.93,406.87Z" style="fill:#263238"></path><polygon points="183.05 396.63 182.78 402.34 178.02 402.7 178.29 396.99 183.05 396.63" style="opacity:0.2"></polygon><polygon points="146.33 394.05 150.92 395.33 148.72 400.62 144.13 399.34 146.33 394.05" style="opacity:0.2"></polygon><path d="M167.27,261.93a106.38,106.38,0,0,1,.63,15.92c-.11,3.71-.37,7.23-.69,10.41-.73,7.46-1.76,13.08-1.83,15,3.73.27,17.77,1.29,25.43,1.83,7.52-26.3,3.08-41,3.08-41a49.69,49.69,0,0,0-5.91-1.6c-.42-.09-.86-.17-1.29-.24a96,96,0,0,0-10.82-.78h-2.06C170.36,261.53,167.27,261.93,167.27,261.93Z" style="fill:#407BFF"></path><path d="M167.27,261.93a106.38,106.38,0,0,1,.63,15.92c-.11,3.71-.37,7.23-.69,10.41-.73,7.46-1.76,13.08-1.83,15,3.73.27,17.77,1.29,25.43,1.83.82-27.28,3.08-41,3.08-41a49.69,49.69,0,0,0-5.91-1.6c-.42-.09-.86-.17-1.29-.24a96,96,0,0,0-10.82-.78h-2.06C170.36,261.53,167.27,261.93,167.27,261.93Z" style="fill:#fff;opacity:0.7000000000000001"></path><path d="M184.79,267a32.67,32.67,0,0,1,1.77,8.61c-.39,1-.83,2-1.33,3-.5-1.06-1-2.13-1.63-3.19.06-4.78.63-6,.17-8.48Z" style="fill:#263238"></path><polygon points="184.61 268.57 185.68 266.25 184.02 265.38 182.67 266.07 184.61 268.57" style="fill:#263238"></polygon><path d="M173.81,261.46c4.83,5.77,4.9,9.29,11.21,9.33,5.93,0,4-2.8,3.53-8.19a49.9,49.9,0,0,1,5.34,1.48s4.44,14.73-3.08,41c-7.66-.54-21.7-1.56-25.43-1.83.07-1.94,1.1-7.56,1.83-15,.32-3.18.58-6.7.69-10.41a106.38,106.38,0,0,0-.63-15.92S170.36,261.53,173.81,261.46Z" style="fill:#407BFF"></path><path d="M177.94,249.39c.4,3.52.56,9.93-2.07,12.07a10.77,10.77,0,0,0,8.07,3.91c3,.15,3.32-1.93,2.75-3.13-3.81-1.2-3.47-4.07-2.58-6.72Z" style="fill:#7f3e3b"></path><path d="M184,265.37s-1.24,1.37-2.67,2.71c-1.9-1.17-6.33-4.26-6-6.84a2.58,2.58,0,0,1,1.33-1.13A28.16,28.16,0,0,0,184,265.37Z" style="fill:#fff"></path><path d="M184,265.37a13.86,13.86,0,0,1,2.37,3c1.49-.9,1-5.77.48-6.34a3.36,3.36,0,0,0-1.88-.76S186.31,265,184,265.37Z" style="fill:#fff"></path><path d="M180.46,251.89l3.65,3.63a12.24,12.24,0,0,0-.49,1.89c-1.46-.32-3.37-2.09-3.4-3.65A5.21,5.21,0,0,1,180.46,251.89Z" style="opacity:0.2"></path><path d="M176.85,244.87c.5,4.7.55,7.48,3,9.77,3.74,3.44,9.46,1,10.38-3.79.83-4.29-.12-11.25-4.81-12.87A6.52,6.52,0,0,0,176.85,244.87Z" style="fill:#7f3e3b"></path><path d="M184.49,401.1l-8.06.62s1.29-26.78,2.14-41.58a154.12,154.12,0,0,0-.44-17.7c-.6-8.61-1.57-18-2.41-25.31-.89-7.73-1.62-13.22-1.62-13.22l16.72,1.21s2.4,38.11,1.28,52.61C191,372.8,184.49,401.1,184.49,401.1Z" style="fill:#263238"></path><path d="M178.13,342.44c-.6-8.61-1.57-18-2.41-25.31l2.28-3.45C181.36,319.14,180.17,334.37,178.13,342.44Z" style="opacity:0.6000000000000001"></path><path d="M181.8,304.47S173.59,344.88,170,358.4c-3.92,14.79-18.86,41.75-18.86,41.75l-8.41-2.34s10.62-25.12,13.57-40c3.3-16.69,9.07-54.48,9.07-54.48Z" style="fill:#263238"></path><polygon points="152.1 400.62 142.21 397.86 143.06 394.91 153.56 397.19 152.1 400.62" style="fill:#263238"></polygon><polygon points="185.5 401.28 175.88 401.88 175.72 398.79 186.28 397.97 185.5 401.28" style="fill:#263238"></polygon><path d="M184.06,245.81c0,.38.24.68.49.67s.44-.34.42-.72-.23-.68-.48-.67S184.05,245.42,184.06,245.81Z" style="fill:#263238"></path><path d="M188.4,245.58c0,.38.24.68.49.67s.44-.34.42-.72-.23-.69-.48-.67S188.39,245.19,188.4,245.58Z" style="fill:#263238"></path><path d="M187,245.84a13.34,13.34,0,0,0,2,3.07,2.31,2.31,0,0,1-1.82.4Z" style="fill:#630f0f"></path><path d="M185.23,250.89a4.13,4.13,0,0,0,.5,0,.13.13,0,0,0,.11-.12.11.11,0,0,0-.12-.11,3,3,0,0,1-2.53-1,.11.11,0,0,0-.16,0,.11.11,0,0,0,0,.16A3.13,3.13,0,0,0,185.23,250.89Z" style="fill:#263238"></path><path d="M182.66,244.48a.23.23,0,0,0,.21-.1,1.83,1.83,0,0,1,1.41-.83.22.22,0,0,0,.23-.22.21.21,0,0,0-.22-.23,2.25,2.25,0,0,0-1.79,1,.22.22,0,0,0,.06.31A.21.21,0,0,0,182.66,244.48Z" style="fill:#263238"></path><path d="M190.21,244a.2.2,0,0,0,.13,0,.23.23,0,0,0,.09-.31,2.24,2.24,0,0,0-1.68-1.18.23.23,0,0,0,0,.45,1.72,1.72,0,0,1,1.32,1A.21.21,0,0,0,190.21,244Z" style="fill:#263238"></path><path d="M147.54,406a.11.11,0,0,1,0-.2c.19-.06,1.94-.56,2.37-.15a.34.34,0,0,1,.1.35.7.7,0,0,1-.39.51,1.41,1.41,0,0,1-1,0A5.46,5.46,0,0,1,147.54,406Zm.36-.06a2.33,2.33,0,0,0,1.66.37.48.48,0,0,0,.26-.35c0-.09,0-.13,0-.15a.32.32,0,0,0-.13-.07A4.7,4.7,0,0,0,147.9,405.89Z" style="fill:#407BFF"></path><path d="M147.51,405.93a.14.14,0,0,1,0-.11c0-.06.51-1.35,1.17-1.63a.65.65,0,0,1,.51,0,.37.37,0,0,1,.26.39c-.05.53-1.26,1.28-1.81,1.4a0,0,0,0,1-.05,0Zm1.24-1.54c-.42.18-.79.91-.95,1.28.57-.22,1.38-.82,1.41-1.13,0,0,0-.1-.13-.16H149A.39.39,0,0,0,148.75,404.39Z" style="fill:#407BFF"></path><path d="M183.29,407.46a.12.12,0,0,1,.07-.12c.22-.09,2.2-.95,2.76-.59a.38.38,0,0,1,.17.31.67.67,0,0,1-.25.54c-.56.42-1.91.16-2.67,0h0A.1.1,0,0,1,183.29,407.46Zm.47,0a3.07,3.07,0,0,0,2.14,0,.42.42,0,0,0,.16-.35.15.15,0,0,0-.06-.13l0,0A4.86,4.86,0,0,0,183.76,407.42Z" style="fill:#407BFF"></path><path d="M183.33,407.54a.12.12,0,0,1,0-.11,3.27,3.27,0,0,1,.87-1.78.86.86,0,0,1,.64-.16c.3.05.38.22.39.34.05.54-1.16,1.5-1.75,1.72h-.11Zm1.43-1.82a.61.61,0,0,0-.47.11,2.63,2.63,0,0,0-.73,1.42c.61-.31,1.44-1.07,1.41-1.4,0,0,0-.07-.1-.1A.18.18,0,0,0,184.76,405.72Z" style="fill:#407BFF"></path><path d="M167.82,268.61c.14,2.75.16,5.46.11,8.08,4.42-3,5.13-9.28,5.13-9.28l-1.7-.67Z" style="opacity:0.2"></path><path d="M169.85,269.27c-1.33.74-2.77,1.54-4.13,2.36s-2.73,1.65-4,2.52-2.59,1.76-3.76,2.69a18,18,0,0,0-2.92,2.79c-.33.41-.48.81-.48.73h0v-.07l0-.08s0,0,0,0a2.35,2.35,0,0,0,.18.54,10.07,10.07,0,0,0,1,1.6c.43.57.91,1.15,1.43,1.72,2.07,2.27,4.5,4.52,6.88,6.69l-2,3a47.48,47.48,0,0,1-8.79-5.57,19.45,19.45,0,0,1-4-4.23,8.34,8.34,0,0,1-.87-1.72,6.63,6.63,0,0,1-.3-1.17,5.19,5.19,0,0,1-.07-.7V280l0-.33a7.36,7.36,0,0,1,.57-2.2,10.56,10.56,0,0,1,.87-1.61,17.51,17.51,0,0,1,1.93-2.42c.66-.71,1.34-1.34,2-1.95a48.81,48.81,0,0,1,4.21-3.28c1.43-1,2.87-1.95,4.36-2.82s2.94-1.72,4.54-2.53Z" style="fill:#803e3c"></path><path d="M169.35,261.68c-4.5-.75-13.48,7.23-13.48,7.23l5.9,7.57a24.92,24.92,0,0,0,9.57-5.58C176,266.42,174.81,262.59,169.35,261.68Z" style="fill:#407BFF"></path><path d="M162.93,290l4.83-.06-2.52,5.57s-4.12-.86-3.88-3.1Z" style="fill:#7f3e3b"></path><polygon points="170.91 292.32 168.61 296.83 165.24 295.49 167.76 289.92 170.91 292.32" style="fill:#7f3e3b"></polygon><polygon points="156.28 267.45 163.21 276.51 160.97 277.42 154.96 269.03 156.28 267.45" style="fill:#407BFF"></polygon><polygon points="156.28 267.45 163.21 276.51 160.97 277.42 154.96 269.03 156.28 267.45" style="fill:#fff;opacity:0.7000000000000001"></polygon><path d="M177.94,249.39s1.73,0,1.3-2.91,4.44-5,4.44-5,7.52.09,7.16-3.86a7.28,7.28,0,0,0-2.92-5,.51.51,0,0,0-.84.43c.06.59-.19,1.16-1.39,1.07-2-.14-2.87-1.44-4.8-2.06a.87.87,0,0,0-1.09,1.08,1.93,1.93,0,0,1-1,2.59,8.6,8.6,0,0,1-3.8.72.41.41,0,0,0-.25.74c.77.6,1.48,1.45,1.1,2.45-.73,2-3.54,4.8-1.82,6.85A11,11,0,0,0,177.94,249.39Z" style="fill:#263238"></path><path d="M180.81,240.49l.77,2s-3.88,1.66-4.33,5.69l-.34-1.81A7.56,7.56,0,0,1,180.81,240.49Z" style="fill:#407BFF"></path><path d="M180.81,240.49l.77,2s-3.88,1.66-4.33,5.69l-.34-1.81A7.56,7.56,0,0,1,180.81,240.49Z" style="fill:#fff;opacity:0.5"></path><polygon points="180.99 240.28 182.38 239.49 183.73 239.34 185.06 239.81 185.26 240.11 185.18 241.07 184.62 242.67 183.48 243.28 181.95 243.08 181.13 241.53 180.91 240.79 180.99 240.28" style="fill:#263238"></polygon><polygon points="186.27 239.67 187.67 238.89 189.02 238.73 190.34 239.21 190.54 239.51 190.47 240.47 189.91 242.07 188.76 242.68 187.24 242.47 186.42 240.93 186.19 240.18 186.27 239.67" style="fill:#263238"></polygon><polygon points="182.03 243.09 183.48 243.28 184.62 242.67 185.18 241.07 185.26 240.11 185.06 239.81 184.56 239.63 182.03 243.09" style="fill:#fff;opacity:0.5"></polygon><polygon points="187.32 242.48 188.76 242.68 189.91 242.07 190.47 240.47 190.54 239.51 190.34 239.21 189.85 239.03 187.32 242.48" style="fill:#fff;opacity:0.5"></polygon><path d="M190.63,238.92a2.73,2.73,0,0,0-2-.54,7.1,7.1,0,0,0-2.49.91,1.76,1.76,0,0,1-1,.11,7.25,7.25,0,0,0-1.85-.41,3.79,3.79,0,0,0-2.64,1,1.41,1.41,0,0,0,0,1.17c.18.55.65,1.87,1.28,2.21a2.55,2.55,0,0,0,1.45.17,2.62,2.62,0,0,0,1.37-.49,4.29,4.29,0,0,0,.74-2.48.4.4,0,0,1,0-.11.45.45,0,0,1,.42-.05s0,.1,0,.14c.18.55.65,1.87,1.28,2.22a2.73,2.73,0,0,0,1.45.17,2.59,2.59,0,0,0,1.36-.5,4.21,4.21,0,0,0,.75-2.47v-.11A1.37,1.37,0,0,0,190.63,238.92Zm-5.83,1.54v.13a3.63,3.63,0,0,1-.48,1.88,2.57,2.57,0,0,1-2,.23,3.91,3.91,0,0,1-.91-1.76c-.09-.29-.11-.42-.14-.42h0a3.32,3.32,0,0,1,2.12-.75,2.35,2.35,0,0,1,1.42.26A1.88,1.88,0,0,1,184.8,240.46Zm5.3-.6V240a3.62,3.62,0,0,1-.48,1.87,2.64,2.64,0,0,1-2,.24,4.17,4.17,0,0,1-.9-1.76c-.1-.3-.11-.42-.14-.42h0a3.25,3.25,0,0,1,2.11-.75,2.33,2.33,0,0,1,1.43.25A2,2,0,0,1,190.1,239.86Z" style="fill:#407BFF"></path><path d="M175.21,248.88a4.45,4.45,0,0,0,2.32,2.5c1.44.63,2.4-.6,2.2-2.08s-1.14-3.26-2.68-3.27A2,2,0,0,0,175.21,248.88Z" style="fill:#7f3e3b"></path><path d="M208.68,392.35l-7.25-67.89H127.91l-7.25,67.89c-1.28,12,4.37,22.91,11.82,22.91h64.38C204.31,415.26,210,404.31,208.68,392.35Z" style="fill:#263238"></path><path d="M208.68,392.35l-7.25-67.89H127.91l-7.25,67.89c-1.28,12,4.37,22.91,11.82,22.91h64.38C204.31,415.26,210,404.31,208.68,392.35Z" style="fill:#fff;opacity:0.5"></path><path d="M208.68,392.35l-7.25-67.89h-.86l6.29,58.83c1.27,12-4.38,22.91-11.83,22.91H130.65c-4.32,0-8-3.68-10.14-9.11.42,10,5.52,18.17,12,18.17h64.38C204.31,415.26,210,404.31,208.68,392.35Z" style="opacity:0.2"></path><rect x="122.3" y="320.64" width="84.73" height="7.63" rx="2.25" style="fill:#407BFF"></rect><rect x="122.3" y="320.64" width="84.73" height="7.63" rx="2.25" style="opacity:0.2"></rect><path d="M128.4,336.62l2.24-3.38a1.45,1.45,0,0,0-1-2.29H125a1.45,1.45,0,0,0-1,2.29l2.24,3.38c-3.27,1.63-5.77,10.22-5.77,14,0,4.21,3.07,7.63,6.85,7.63s6.85-3.42,6.85-7.63C134.17,346.84,131.67,338.25,128.4,336.62Z" style="fill:#407BFF"></path><path d="M128.4,336.62l2.24-3.38a1.45,1.45,0,0,0-1-2.29H125a1.45,1.45,0,0,0-1,2.29l2.24,3.38c-3.27,1.63-5.77,10.22-5.77,14,0,4.21,3.07,7.63,6.85,7.63s6.85-3.42,6.85-7.63C134.17,346.84,131.67,338.25,128.4,336.62Z" style="fill:#fff;opacity:0.7000000000000001"></path><rect x="124.22" y="335.39" width="6.21" height="2.91" rx="0.86" style="fill:#407BFF"></rect><path d="M206.92,336.53l1.9-3.61a1.43,1.43,0,0,0-1.25-2.17l-4.53.54a1.48,1.48,0,0,0-.82,2.4l2.54,3.1c-3.09,2-4.77,10.84-4.41,14.62.39,4.19,3.76,7.23,7.52,6.79s6.49-4.19,6.1-8.39C213.61,346,210.32,337.78,206.92,336.53Z" style="fill:#407BFF"></path><path d="M206.92,336.53l1.9-3.61a1.43,1.43,0,0,0-1.25-2.17l-4.53.54a1.48,1.48,0,0,0-.82,2.4l2.54,3.1c-3.09,2-4.77,10.84-4.41,14.62.39,4.19,3.76,7.23,7.52,6.79s6.49-4.19,6.1-8.39C213.61,346,210.32,337.78,206.92,336.53Z" style="fill:#fff;opacity:0.4"></path><path d="M208.23,338.07l-4.46.52a.89.89,0,0,1-1-.85l-.09-1a.93.93,0,0,1,.77-1.05l4.46-.52a.88.88,0,0,1,.94.85l.09,1A.93.93,0,0,1,208.23,338.07Z" style="fill:#407BFF"></path><path d="M196.88,336.62l2.23-3.38a1.45,1.45,0,0,0-1-2.29h-4.55a1.45,1.45,0,0,0-1,2.29l2.23,3.38c-3.27,1.63-5.76,10.22-5.76,14,0,4.21,3.06,7.63,6.84,7.63s6.85-3.42,6.85-7.63C202.64,346.84,200.14,338.25,196.88,336.62Z" style="fill:#407BFF"></path><path d="M196.88,336.62l2.23-3.38a1.45,1.45,0,0,0-1-2.29h-4.55a1.45,1.45,0,0,0-1,2.29l2.23,3.38c-3.27,1.63-5.76,10.22-5.76,14,0,4.21,3.06,7.63,6.84,7.63s6.85-3.42,6.85-7.63C202.64,346.84,200.14,338.25,196.88,336.62Z" style="fill:#fff;opacity:0.7000000000000001"></path><rect x="192.69" y="335.39" width="6.21" height="2.91" rx="0.86" style="fill:#407BFF"></rect></g></svg>
