<svg xmlns="http://www.w3.org/2000/svg" viewBox="0 0 750 500"><g id="freepik--background-simple--inject-3"><path d="M715.93,221.49c-.81-41.1-23.07-80.77-57-111.4a285.59,285.59,0,0,0-69.75-45.83c-27-12.68-56.44-26.89-89.07-29.07a87.37,87.37,0,0,0-24.25,1.44c-30.43,6.58,29.78,30,37.65,33.46C429.38,44,342.28,17.45,250.29,20c-17.74.48-36.13,2.22-51.73,9.36S170.9,50.22,173.22,63.87c1.92,11.29,12.43,23.89,2.57,32.71-2.81,2.53-6.81,4-10.73,5.31-20.12,6.64-41.85,10.13-60.91,18.58a110.78,110.78,0,0,0-59,62.42c-9.34,25.3-8.89,51.88-5.23,77.62,6.9,48.43,25.66,96.47,63.62,134.14,54.22,53.79,143.11,81.19,232.15,85.71C443.44,485.82,560.25,457.2,631.5,391c10.57-9.82,20.26-20.71,24.1-33s.8-26.36-11-34.45c-3.19-2.18-7.29-4.49-6.94-7.88.46-4.58,8-6.13,13.83-7.09,37.92-6.3,59.61-39.68,63.52-69.69A114.72,114.72,0,0,0,715.93,221.49Z" style="fill:#92E3A9"></path><path d="M715.93,221.49c-.81-41.1-23.07-80.77-57-111.4a285.59,285.59,0,0,0-69.75-45.83c-27-12.68-56.44-26.89-89.07-29.07a87.37,87.37,0,0,0-24.25,1.44c-30.43,6.58,29.78,30,37.65,33.46C429.38,44,342.28,17.45,250.29,20c-17.74.48-36.13,2.22-51.73,9.36S170.9,50.22,173.22,63.87c1.92,11.29,12.43,23.89,2.57,32.71-2.81,2.53-6.81,4-10.73,5.31-20.12,6.64-41.85,10.13-60.91,18.58a110.78,110.78,0,0,0-59,62.42c-9.34,25.3-8.89,51.88-5.23,77.62,6.9,48.43,25.66,96.47,63.62,134.14,54.22,53.79,143.11,81.19,232.15,85.71C443.44,485.82,560.25,457.2,631.5,391c10.57-9.82,20.26-20.71,24.1-33s.8-26.36-11-34.45c-3.19-2.18-7.29-4.49-6.94-7.88.46-4.58,8-6.13,13.83-7.09,37.92-6.3,59.61-39.68,63.52-69.69A114.72,114.72,0,0,0,715.93,221.49Z" style="fill:#fff;opacity:0.7000000000000001"></path></g><g id="freepik--Floor--inject-3"><line x1="724.19" y1="438.92" x2="25.67" y2="438.92" style="fill:none;stroke:#263238;stroke-miterlimit:10"></line></g><g id="freepik--light-bulbs--inject-3"><path d="M52.41,423.09a5.28,5.28,0,1,1-5.28-5.27A5.27,5.27,0,0,1,52.41,423.09Z" style="fill:#fff;stroke:#263238;stroke-linecap:round;stroke-linejoin:round"></path><path d="M66.21,423.09a5.28,5.28,0,1,1-5.28-5.27A5.27,5.27,0,0,1,66.21,423.09Z" style="fill:#92E3A9;stroke:#263238;stroke-linecap:round;stroke-linejoin:round"></path><path d="M80,423.09a5.28,5.28,0,1,1-5.28-5.27A5.28,5.28,0,0,1,80,423.09Z" style="fill:#fff;stroke:#263238;stroke-linecap:round;stroke-linejoin:round"></path><path d="M93.81,423.09a5.28,5.28,0,1,1-5.28-5.27A5.28,5.28,0,0,1,93.81,423.09Z" style="fill:#92E3A9;stroke:#263238;stroke-linecap:round;stroke-linejoin:round"></path><path d="M107.6,423.09a5.28,5.28,0,1,1-5.27-5.27A5.27,5.27,0,0,1,107.6,423.09Z" style="fill:#fff;stroke:#263238;stroke-linecap:round;stroke-linejoin:round"></path><path d="M121.4,423.09a5.28,5.28,0,1,1-5.27-5.27A5.27,5.27,0,0,1,121.4,423.09Z" style="fill:#92E3A9;stroke:#263238;stroke-linecap:round;stroke-linejoin:round"></path><path d="M135.2,423.09a5.28,5.28,0,1,1-5.27-5.27A5.27,5.27,0,0,1,135.2,423.09Z" style="fill:#fff;stroke:#263238;stroke-linecap:round;stroke-linejoin:round"></path><path d="M149,423.09a5.28,5.28,0,1,1-5.28-5.27A5.27,5.27,0,0,1,149,423.09Z" style="fill:#92E3A9;stroke:#263238;stroke-linecap:round;stroke-linejoin:round"></path><path d="M162.8,423.09a5.28,5.28,0,1,1-5.28-5.27A5.27,5.27,0,0,1,162.8,423.09Z" style="fill:#fff;stroke:#263238;stroke-linecap:round;stroke-linejoin:round"></path><path d="M176.6,423.09a5.28,5.28,0,1,1-5.28-5.27A5.28,5.28,0,0,1,176.6,423.09Z" style="fill:#92E3A9;stroke:#263238;stroke-linecap:round;stroke-linejoin:round"></path><path d="M190.4,423.09a5.28,5.28,0,1,1-5.28-5.27A5.28,5.28,0,0,1,190.4,423.09Z" style="fill:#fff;stroke:#263238;stroke-linecap:round;stroke-linejoin:round"></path><path d="M204.19,423.09a5.28,5.28,0,1,1-5.27-5.27A5.27,5.27,0,0,1,204.19,423.09Z" style="fill:#92E3A9;stroke:#263238;stroke-linecap:round;stroke-linejoin:round"></path><path d="M218,423.09a5.28,5.28,0,1,1-5.27-5.27A5.27,5.27,0,0,1,218,423.09Z" style="fill:#fff;stroke:#263238;stroke-linecap:round;stroke-linejoin:round"></path><path d="M231.79,423.09a5.28,5.28,0,1,1-5.27-5.27A5.27,5.27,0,0,1,231.79,423.09Z" style="fill:#92E3A9;stroke:#263238;stroke-linecap:round;stroke-linejoin:round"></path><path d="M245.59,423.09a5.28,5.28,0,1,1-5.28-5.27A5.27,5.27,0,0,1,245.59,423.09Z" style="fill:#fff;stroke:#263238;stroke-linecap:round;stroke-linejoin:round"></path><path d="M259.39,423.09a5.28,5.28,0,1,1-5.28-5.27A5.27,5.27,0,0,1,259.39,423.09Z" style="fill:#92E3A9;stroke:#263238;stroke-linecap:round;stroke-linejoin:round"></path><path d="M273.19,423.09a5.28,5.28,0,1,1-5.28-5.27A5.27,5.27,0,0,1,273.19,423.09Z" style="fill:#fff;stroke:#263238;stroke-linecap:round;stroke-linejoin:round"></path><path d="M287,423.09a5.28,5.28,0,1,1-5.28-5.27A5.28,5.28,0,0,1,287,423.09Z" style="fill:#92E3A9;stroke:#263238;stroke-linecap:round;stroke-linejoin:round"></path><path d="M300.79,423.09a5.28,5.28,0,1,1-5.28-5.27A5.28,5.28,0,0,1,300.79,423.09Z" style="fill:#fff;stroke:#263238;stroke-linecap:round;stroke-linejoin:round"></path><path d="M314.58,423.09a5.28,5.28,0,1,1-5.27-5.27A5.27,5.27,0,0,1,314.58,423.09Z" style="fill:#92E3A9;stroke:#263238;stroke-linecap:round;stroke-linejoin:round"></path><path d="M328.38,423.09a5.28,5.28,0,1,1-5.27-5.27A5.27,5.27,0,0,1,328.38,423.09Z" style="fill:#fff;stroke:#263238;stroke-linecap:round;stroke-linejoin:round"></path><path d="M342.18,423.09a5.28,5.28,0,1,1-5.27-5.27A5.27,5.27,0,0,1,342.18,423.09Z" style="fill:#92E3A9;stroke:#263238;stroke-linecap:round;stroke-linejoin:round"></path><path d="M356,423.09a5.28,5.28,0,1,1-5.28-5.27A5.27,5.27,0,0,1,356,423.09Z" style="fill:#fff;stroke:#263238;stroke-linecap:round;stroke-linejoin:round"></path><path d="M369.78,423.09a5.28,5.28,0,1,1-5.28-5.27A5.27,5.27,0,0,1,369.78,423.09Z" style="fill:#92E3A9;stroke:#263238;stroke-linecap:round;stroke-linejoin:round"></path><path d="M383.58,423.09a5.28,5.28,0,1,1-5.28-5.27A5.27,5.27,0,0,1,383.58,423.09Z" style="fill:#fff;stroke:#263238;stroke-linecap:round;stroke-linejoin:round"></path><path d="M397.38,423.09a5.28,5.28,0,1,1-5.28-5.27A5.28,5.28,0,0,1,397.38,423.09Z" style="fill:#92E3A9;stroke:#263238;stroke-linecap:round;stroke-linejoin:round"></path><path d="M411.17,423.09a5.28,5.28,0,1,1-5.27-5.27A5.27,5.27,0,0,1,411.17,423.09Z" style="fill:#fff;stroke:#263238;stroke-linecap:round;stroke-linejoin:round"></path><path d="M425,423.09a5.28,5.28,0,1,1-5.27-5.27A5.27,5.27,0,0,1,425,423.09Z" style="fill:#92E3A9;stroke:#263238;stroke-linecap:round;stroke-linejoin:round"></path><path d="M438.77,423.09a5.28,5.28,0,1,1-5.27-5.27A5.27,5.27,0,0,1,438.77,423.09Z" style="fill:#fff;stroke:#263238;stroke-linecap:round;stroke-linejoin:round"></path><path d="M452.57,423.09a5.28,5.28,0,1,1-5.28-5.27A5.27,5.27,0,0,1,452.57,423.09Z" style="fill:#92E3A9;stroke:#263238;stroke-linecap:round;stroke-linejoin:round"></path><path d="M466.37,423.09a5.28,5.28,0,1,1-5.28-5.27A5.27,5.27,0,0,1,466.37,423.09Z" style="fill:#fff;stroke:#263238;stroke-linecap:round;stroke-linejoin:round"></path><path d="M480.17,423.09a5.28,5.28,0,1,1-5.28-5.27A5.27,5.27,0,0,1,480.17,423.09Z" style="fill:#92E3A9;stroke:#263238;stroke-linecap:round;stroke-linejoin:round"></path><path d="M494,423.09a5.28,5.28,0,1,1-5.28-5.27A5.28,5.28,0,0,1,494,423.09Z" style="fill:#fff;stroke:#263238;stroke-linecap:round;stroke-linejoin:round"></path><path d="M507.77,423.09a5.28,5.28,0,1,1-5.28-5.27A5.28,5.28,0,0,1,507.77,423.09Z" style="fill:#92E3A9;stroke:#263238;stroke-linecap:round;stroke-linejoin:round"></path><path d="M521.56,423.09a5.28,5.28,0,1,1-5.27-5.27A5.27,5.27,0,0,1,521.56,423.09Z" style="fill:#fff;stroke:#263238;stroke-linecap:round;stroke-linejoin:round"></path><path d="M535.36,423.09a5.28,5.28,0,1,1-5.27-5.27A5.27,5.27,0,0,1,535.36,423.09Z" style="fill:#92E3A9;stroke:#263238;stroke-linecap:round;stroke-linejoin:round"></path><path d="M549.16,423.09a5.28,5.28,0,1,1-5.27-5.27A5.27,5.27,0,0,1,549.16,423.09Z" style="fill:#fff;stroke:#263238;stroke-linecap:round;stroke-linejoin:round"></path><path d="M563,423.09a5.28,5.28,0,1,1-5.28-5.27A5.27,5.27,0,0,1,563,423.09Z" style="fill:#92E3A9;stroke:#263238;stroke-linecap:round;stroke-linejoin:round"></path><path d="M576.76,423.09a5.28,5.28,0,1,1-5.28-5.27A5.27,5.27,0,0,1,576.76,423.09Z" style="fill:#fff;stroke:#263238;stroke-linecap:round;stroke-linejoin:round"></path><path d="M590.56,423.09a5.28,5.28,0,1,1-5.28-5.27A5.27,5.27,0,0,1,590.56,423.09Z" style="fill:#92E3A9;stroke:#263238;stroke-linecap:round;stroke-linejoin:round"></path><path d="M604.36,423.09a5.28,5.28,0,1,1-5.28-5.27A5.28,5.28,0,0,1,604.36,423.09Z" style="fill:#fff;stroke:#263238;stroke-linecap:round;stroke-linejoin:round"></path><path d="M618.15,423.09a5.28,5.28,0,1,1-5.27-5.27A5.27,5.27,0,0,1,618.15,423.09Z" style="fill:#92E3A9;stroke:#263238;stroke-linecap:round;stroke-linejoin:round"></path><path d="M632,423.09a5.28,5.28,0,1,1-5.27-5.27A5.27,5.27,0,0,1,632,423.09Z" style="fill:#fff;stroke:#263238;stroke-linecap:round;stroke-linejoin:round"></path><path d="M645.75,423.09a5.28,5.28,0,1,1-5.27-5.27A5.27,5.27,0,0,1,645.75,423.09Z" style="fill:#92E3A9;stroke:#263238;stroke-linecap:round;stroke-linejoin:round"></path><path d="M659.55,423.09a5.28,5.28,0,1,1-5.28-5.27A5.27,5.27,0,0,1,659.55,423.09Z" style="fill:#fff;stroke:#263238;stroke-linecap:round;stroke-linejoin:round"></path><path d="M673.35,423.09a5.28,5.28,0,1,1-5.28-5.27A5.27,5.27,0,0,1,673.35,423.09Z" style="fill:#92E3A9;stroke:#263238;stroke-linecap:round;stroke-linejoin:round"></path><path d="M687.15,423.09a5.28,5.28,0,1,1-5.28-5.27A5.27,5.27,0,0,1,687.15,423.09Z" style="fill:#fff;stroke:#263238;stroke-linecap:round;stroke-linejoin:round"></path><path d="M701,423.09a5.28,5.28,0,1,1-5.28-5.27A5.28,5.28,0,0,1,701,423.09Z" style="fill:#92E3A9;stroke:#263238;stroke-linecap:round;stroke-linejoin:round"></path><polyline points="31.59 157.89 317.02 404.02 711.5 117.49" style="fill:none;stroke:#263238;stroke-miterlimit:10"></polyline><path d="M319.52,374.27a5.28,5.28,0,1,1-7.37-1.16A5.27,5.27,0,0,1,319.52,374.27Z" style="fill:#fff;stroke:#263238;stroke-linecap:round;stroke-linejoin:round"></path><path d="M330.68,366.15a5.28,5.28,0,1,1-7.37-1.16A5.29,5.29,0,0,1,330.68,366.15Z" style="fill:#92E3A9;stroke:#263238;stroke-linecap:round;stroke-linejoin:round"></path><path d="M341.83,358a5.28,5.28,0,1,1-7.37-1.15A5.27,5.27,0,0,1,341.83,358Z" style="fill:#fff;stroke:#263238;stroke-linecap:round;stroke-linejoin:round"></path><path d="M353,349.9a5.28,5.28,0,1,1-7.37-1.16A5.28,5.28,0,0,1,353,349.9Z" style="fill:#92E3A9;stroke:#263238;stroke-linecap:round;stroke-linejoin:round"></path><path d="M364.14,341.78a5.28,5.28,0,1,1-7.37-1.16A5.27,5.27,0,0,1,364.14,341.78Z" style="fill:#fff;stroke:#263238;stroke-linecap:round;stroke-linejoin:round"></path><path d="M375.29,333.65a5.28,5.28,0,1,1-7.37-1.15A5.29,5.29,0,0,1,375.29,333.65Z" style="fill:#92E3A9;stroke:#263238;stroke-linecap:round;stroke-linejoin:round"></path><path d="M386.45,325.53a5.28,5.28,0,1,1-7.37-1.16A5.27,5.27,0,0,1,386.45,325.53Z" style="fill:#fff;stroke:#263238;stroke-linecap:round;stroke-linejoin:round"></path><path d="M397.6,317.41a5.28,5.28,0,1,1-7.37-1.16A5.27,5.27,0,0,1,397.6,317.41Z" style="fill:#92E3A9;stroke:#263238;stroke-linecap:round;stroke-linejoin:round"></path><path d="M408.76,309.29a5.28,5.28,0,1,1-7.37-1.16A5.29,5.29,0,0,1,408.76,309.29Z" style="fill:#fff;stroke:#263238;stroke-linecap:round;stroke-linejoin:round"></path><path d="M419.91,301.16a5.28,5.28,0,1,1-7.37-1.16A5.27,5.27,0,0,1,419.91,301.16Z" style="fill:#92E3A9;stroke:#263238;stroke-linecap:round;stroke-linejoin:round"></path><path d="M431.07,293a5.28,5.28,0,1,1-7.37-1.16A5.29,5.29,0,0,1,431.07,293Z" style="fill:#fff;stroke:#263238;stroke-linecap:round;stroke-linejoin:round"></path><path d="M442.22,284.92a5.28,5.28,0,1,1-7.37-1.16A5.27,5.27,0,0,1,442.22,284.92Z" style="fill:#92E3A9;stroke:#263238;stroke-linecap:round;stroke-linejoin:round"></path><path d="M453.37,276.79a5.28,5.28,0,1,1-7.37-1.16A5.27,5.27,0,0,1,453.37,276.79Z" style="fill:#fff;stroke:#263238;stroke-linecap:round;stroke-linejoin:round"></path><path d="M464.53,268.67a5.28,5.28,0,1,1-7.37-1.16A5.27,5.27,0,0,1,464.53,268.67Z" style="fill:#92E3A9;stroke:#263238;stroke-linecap:round;stroke-linejoin:round"></path><path d="M475.68,260.55a5.28,5.28,0,1,1-7.37-1.16A5.27,5.27,0,0,1,475.68,260.55Z" style="fill:#fff;stroke:#263238;stroke-linecap:round;stroke-linejoin:round"></path><path d="M486.84,252.42a5.28,5.28,0,1,1-7.37-1.16A5.28,5.28,0,0,1,486.84,252.42Z" style="fill:#92E3A9;stroke:#263238;stroke-linecap:round;stroke-linejoin:round"></path><path d="M498,244.3a5.28,5.28,0,1,1-7.37-1.16A5.27,5.27,0,0,1,498,244.3Z" style="fill:#fff;stroke:#263238;stroke-linecap:round;stroke-linejoin:round"></path><path d="M509.15,236.18a5.28,5.28,0,1,1-7.37-1.16A5.29,5.29,0,0,1,509.15,236.18Z" style="fill:#92E3A9;stroke:#263238;stroke-linecap:round;stroke-linejoin:round"></path><path d="M520.3,228.05a5.28,5.28,0,1,1-7.37-1.15A5.27,5.27,0,0,1,520.3,228.05Z" style="fill:#fff;stroke:#263238;stroke-linecap:round;stroke-linejoin:round"></path><path d="M531.45,219.93a5.28,5.28,0,1,1-7.37-1.16A5.27,5.27,0,0,1,531.45,219.93Z" style="fill:#92E3A9;stroke:#263238;stroke-linecap:round;stroke-linejoin:round"></path><circle cx="538.34" cy="214.91" r="5.28" transform="translate(31.09 495.44) rotate(-50.71)" style="fill:#fff;stroke:#263238;stroke-linecap:round;stroke-linejoin:round"></circle><path d="M553.76,203.68a5.28,5.28,0,1,1-7.37-1.15A5.28,5.28,0,0,1,553.76,203.68Z" style="fill:#92E3A9;stroke:#263238;stroke-linecap:round;stroke-linejoin:round"></path><path d="M564.92,195.56a5.28,5.28,0,1,1-7.37-1.16A5.28,5.28,0,0,1,564.92,195.56Z" style="fill:#fff;stroke:#263238;stroke-linecap:round;stroke-linejoin:round"></path><path d="M576.07,187.44a5.28,5.28,0,1,1-7.37-1.16A5.27,5.27,0,0,1,576.07,187.44Z" style="fill:#92E3A9;stroke:#263238;stroke-linecap:round;stroke-linejoin:round"></path><path d="M587.23,179.32a5.28,5.28,0,1,1-7.37-1.16A5.29,5.29,0,0,1,587.23,179.32Z" style="fill:#fff;stroke:#263238;stroke-linecap:round;stroke-linejoin:round"></path><path d="M598.38,171.19A5.28,5.28,0,1,1,591,170,5.27,5.27,0,0,1,598.38,171.19Z" style="fill:#92E3A9;stroke:#263238;stroke-linecap:round;stroke-linejoin:round"></path><path d="M609.53,163.07a5.27,5.27,0,1,1-7.37-1.16A5.28,5.28,0,0,1,609.53,163.07Z" style="fill:#fff;stroke:#263238;stroke-linecap:round;stroke-linejoin:round"></path><path d="M620.69,155a5.28,5.28,0,1,1-7.37-1.16A5.28,5.28,0,0,1,620.69,155Z" style="fill:#92E3A9;stroke:#263238;stroke-linecap:round;stroke-linejoin:round"></path><path d="M631.84,146.82a5.28,5.28,0,1,1-7.37-1.16A5.27,5.27,0,0,1,631.84,146.82Z" style="fill:#fff;stroke:#263238;stroke-linecap:round;stroke-linejoin:round"></path><path d="M643,138.7a5.28,5.28,0,1,1-7.37-1.16A5.28,5.28,0,0,1,643,138.7Z" style="fill:#92E3A9;stroke:#263238;stroke-linecap:round;stroke-linejoin:round"></path><path d="M654.15,130.58a5.28,5.28,0,1,1-7.37-1.16A5.27,5.27,0,0,1,654.15,130.58Z" style="fill:#fff;stroke:#263238;stroke-linecap:round;stroke-linejoin:round"></path><path d="M665.31,122.45a5.28,5.28,0,1,1-7.37-1.16A5.28,5.28,0,0,1,665.31,122.45Z" style="fill:#92E3A9;stroke:#263238;stroke-linecap:round;stroke-linejoin:round"></path><path d="M676.46,114.33a5.28,5.28,0,1,1-7.37-1.16A5.27,5.27,0,0,1,676.46,114.33Z" style="fill:#fff;stroke:#263238;stroke-linecap:round;stroke-linejoin:round"></path><path d="M687.61,106.21a5.27,5.27,0,1,1-7.37-1.16A5.28,5.28,0,0,1,687.61,106.21Z" style="fill:#92E3A9;stroke:#263238;stroke-linecap:round;stroke-linejoin:round"></path><path d="M698.77,98.08a5.28,5.28,0,1,1-7.37-1.15A5.27,5.27,0,0,1,698.77,98.08Z" style="fill:#fff;stroke:#263238;stroke-linecap:round;stroke-linejoin:round"></path><path d="M709.92,90a5.28,5.28,0,1,1-7.37-1.16A5.27,5.27,0,0,1,709.92,90Z" style="fill:#92E3A9;stroke:#263238;stroke-linecap:round;stroke-linejoin:round"></path><path d="M191.84,274.69a5.28,5.28,0,1,1-.53-7.44A5.27,5.27,0,0,1,191.84,274.69Z" style="fill:#fff;stroke:#263238;stroke-linecap:round;stroke-linejoin:round"></path><path d="M202.26,283.74a5.28,5.28,0,1,1-.53-7.45A5.29,5.29,0,0,1,202.26,283.74Z" style="fill:#92E3A9;stroke:#263238;stroke-linecap:round;stroke-linejoin:round"></path><path d="M212.67,292.79a5.27,5.27,0,1,1-.52-7.45A5.27,5.27,0,0,1,212.67,292.79Z" style="fill:#fff;stroke:#263238;stroke-linecap:round;stroke-linejoin:round"></path><path d="M223.09,301.84a5.28,5.28,0,1,1-.52-7.45A5.27,5.27,0,0,1,223.09,301.84Z" style="fill:#92E3A9;stroke:#263238;stroke-linecap:round;stroke-linejoin:round"></path><path d="M233.51,310.88a5.27,5.27,0,1,1-.53-7.44A5.29,5.29,0,0,1,233.51,310.88Z" style="fill:#fff;stroke:#263238;stroke-linecap:round;stroke-linejoin:round"></path><path d="M243.92,319.93a5.27,5.27,0,1,1-.52-7.44A5.27,5.27,0,0,1,243.92,319.93Z" style="fill:#92E3A9;stroke:#263238;stroke-linecap:round;stroke-linejoin:round"></path><circle cx="125.72" cy="216.72" r="5.28" transform="translate(-112.59 294.04) rotate(-77.86)" style="fill:#fff;stroke:#263238;stroke-linecap:round;stroke-linejoin:round"></circle><path d="M140.12,229.23a5.27,5.27,0,1,1-.52-7.45A5.27,5.27,0,0,1,140.12,229.23Z" style="fill:#92E3A9;stroke:#263238;stroke-linecap:round;stroke-linejoin:round"></path><path d="M150.54,238.27a5.28,5.28,0,1,1-.52-7.44A5.27,5.27,0,0,1,150.54,238.27Z" style="fill:#fff;stroke:#263238;stroke-linecap:round;stroke-linejoin:round"></path><path d="M161,247.32a5.28,5.28,0,1,1-.53-7.44A5.29,5.29,0,0,1,161,247.32Z" style="fill:#92E3A9;stroke:#263238;stroke-linecap:round;stroke-linejoin:round"></path><path d="M171.37,256.37a5.27,5.27,0,1,1-.52-7.44A5.27,5.27,0,0,1,171.37,256.37Z" style="fill:#fff;stroke:#263238;stroke-linecap:round;stroke-linejoin:round"></path><path d="M181.79,265.42a5.28,5.28,0,1,1-.52-7.44A5.26,5.26,0,0,1,181.79,265.42Z" style="fill:#92E3A9;stroke:#263238;stroke-linecap:round;stroke-linejoin:round"></path><path d="M67.57,165.66a5.27,5.27,0,1,1-.52-7.44A5.27,5.27,0,0,1,67.57,165.66Z" style="fill:#fff;stroke:#263238;stroke-linecap:round;stroke-linejoin:round"></path><path d="M78,174.71a5.28,5.28,0,1,1-.52-7.44A5.27,5.27,0,0,1,78,174.71Z" style="fill:#92E3A9;stroke:#263238;stroke-linecap:round;stroke-linejoin:round"></path><path d="M88.41,183.76a5.28,5.28,0,1,1-.53-7.44A5.29,5.29,0,0,1,88.41,183.76Z" style="fill:#fff;stroke:#263238;stroke-linecap:round;stroke-linejoin:round"></path><path d="M98.82,192.81a5.27,5.27,0,1,1-.52-7.44A5.26,5.26,0,0,1,98.82,192.81Z" style="fill:#92E3A9;stroke:#263238;stroke-linecap:round;stroke-linejoin:round"></path><path d="M109.24,201.86a5.28,5.28,0,1,1-.52-7.44A5.27,5.27,0,0,1,109.24,201.86Z" style="fill:#fff;stroke:#263238;stroke-linecap:round;stroke-linejoin:round"></path><path d="M119.66,210.91a5.28,5.28,0,1,1-.52-7.44A5.27,5.27,0,0,1,119.66,210.91Z" style="fill:#92E3A9;stroke:#263238;stroke-linecap:round;stroke-linejoin:round"></path><path d="M254.34,329a5.28,5.28,0,1,1-.52-7.44A5.27,5.27,0,0,1,254.34,329Z" style="fill:#fff;stroke:#263238;stroke-linecap:round;stroke-linejoin:round"></path><circle cx="260.78" cy="334.57" r="5.28" style="fill:#92E3A9;stroke:#263238;stroke-linecap:round;stroke-linejoin:round"></circle><path d="M275.18,347.08a5.28,5.28,0,1,1-.53-7.44A5.28,5.28,0,0,1,275.18,347.08Z" style="fill:#fff;stroke:#263238;stroke-linecap:round;stroke-linejoin:round"></path><path d="M285.59,356.13a5.27,5.27,0,1,1-.52-7.44A5.27,5.27,0,0,1,285.59,356.13Z" style="fill:#92E3A9;stroke:#263238;stroke-linecap:round;stroke-linejoin:round"></path><path d="M296,365.18a5.28,5.28,0,1,1-.52-7.44A5.27,5.27,0,0,1,296,365.18Z" style="fill:#fff;stroke:#263238;stroke-linecap:round;stroke-linejoin:round"></path><path d="M306.43,374.23a5.28,5.28,0,1,1-.53-7.44A5.28,5.28,0,0,1,306.43,374.23Z" style="fill:#92E3A9;stroke:#263238;stroke-linecap:round;stroke-linejoin:round"></path></g><g id="freepik--Sign--inject-3"><polygon points="319.64 57.03 166.75 149.57 369.53 268.67 450.81 176.13 319.64 57.03" style="fill:none;stroke:#263238;stroke-miterlimit:10"></polygon><path d="M272.46,226.57a46,46,0,0,1-7.94-3.85,73.44,73.44,0,0,1-9.43-6.64A56.23,56.23,0,0,1,247,208a4.42,4.42,0,0,1-1.12.25l-1.27.13q-12.85,1.26-20.79-2.52a25.37,25.37,0,0,1-12-11.94q-4.09-8.16-5.24-19.88l-4.2-42.53q-1.17-11.86,1.26-20.53a25.11,25.11,0,0,1,9.48-13.84q7-5.19,19.91-6.46t21,2.43A25,25,0,0,1,266,104.8q4.07,8,5.24,19.88l4.19,42.53a66,66,0,0,1,0,14.7,32.39,32.39,0,0,1-3.69,11.78,23.77,23.77,0,0,1-8.08,8.5q2,1.8,4.2,3.51c1.44,1.14,2.88,2.19,4.3,3.14a21.5,21.5,0,0,0,4.22,2.22ZM242.79,190.4c2.64-.26,4.5-1.1,5.6-2.54a10,10,0,0,0,1.9-5.33,36.17,36.17,0,0,0-.06-6.41L244.8,121a36.51,36.51,0,0,0-1.2-6.37,9.94,9.94,0,0,0-2.9-4.78q-2-1.8-6-1.41c-2.63.26-4.48,1.11-5.52,2.55a9.68,9.68,0,0,0-1.77,5.23,40.56,40.56,0,0,0,.14,6.48L233,177.82a40.59,40.59,0,0,0,1.12,6.31,9.71,9.71,0,0,0,2.76,4.86Q238.84,190.79,242.79,190.4Z" style="fill:#263238;stroke:#263238;stroke-linecap:round;stroke-linejoin:round"></path><path d="M327.64,200.16q-13.14,1.29-21-2.28A23.24,23.24,0,0,1,295,186.33q-3.78-8-5-20l-7.79-79,25-2.47,8.16,82.8a44.44,44.44,0,0,0,1.26,7,11.69,11.69,0,0,0,3.05,5.55q2.13,2.07,6.08,1.68c2.73-.27,4.64-1.21,5.71-2.84a11.59,11.59,0,0,0,1.77-6,51.1,51.1,0,0,0-.21-7.11L325,83.15l25.15-2.48,7.79,79q1.19,12-1,20.57a23.57,23.57,0,0,1-9.15,13.6Q340.79,198.87,327.64,200.16Z" style="fill:#263238;stroke:#263238;stroke-linecap:round;stroke-linejoin:round"></path><path d="M377.63,193.52,366.35,79.07l25.29-2.49L402.92,191Z" style="fill:#263238;stroke:#263238;stroke-linecap:round;stroke-linejoin:round"></path><path d="M415.64,189.78l-1.5-15.26L434,89.67l-26.7,2.63-1.69-17.1,51.57-5.08,1.41,14.27L438.4,170.27l28.68-2.83,1.69,17.1Z" style="fill:#263238;stroke:#263238;stroke-linecap:round;stroke-linejoin:round"></path><path d="M276.63,221.88a46,46,0,0,1-7.94-3.85,73.44,73.44,0,0,1-9.43-6.64,56.23,56.23,0,0,1-8.14-8.11,4.42,4.42,0,0,1-1.12.25l-1.27.13q-12.85,1.26-20.79-2.52a25.32,25.32,0,0,1-12-11.94q-4.09-8.16-5.25-19.88l-4.19-42.53q-1.17-11.87,1.26-20.53a25.11,25.11,0,0,1,9.48-13.84q7-5.19,19.91-6.46t21,2.43a25,25,0,0,1,12.07,11.72q4.08,8,5.25,19.88l4.19,42.53a66,66,0,0,1-.05,14.7A32.59,32.59,0,0,1,275.89,189a23.77,23.77,0,0,1-8.08,8.5q2,1.8,4.2,3.51t4.3,3.14a21.72,21.72,0,0,0,4.21,2.22ZM247,185.71c2.64-.26,4.5-1.1,5.6-2.54a10,10,0,0,0,1.9-5.33,36.17,36.17,0,0,0-.06-6.41L249,116.32a36.51,36.51,0,0,0-1.2-6.37,9.94,9.94,0,0,0-2.9-4.78q-2-1.8-6-1.41t-5.53,2.55a9.76,9.76,0,0,0-1.76,5.23,39.42,39.42,0,0,0,.14,6.48l5.43,55.11a39.44,39.44,0,0,0,1.12,6.31A9.71,9.71,0,0,0,241,184.3Q243,186.1,247,185.71Z" style="fill:#92E3A9;stroke:#263238;stroke-linecap:round;stroke-linejoin:round"></path><path d="M331.81,195.47q-13.14,1.29-21-2.28a23.24,23.24,0,0,1-11.63-11.55q-3.78-8-5-20l-7.79-79,25-2.47,8.16,82.8a44.44,44.44,0,0,0,1.26,7,11.69,11.69,0,0,0,3.05,5.55c1.42,1.38,3.44,1.94,6.08,1.68s4.64-1.21,5.71-2.84a11.48,11.48,0,0,0,1.76-6,51.2,51.2,0,0,0-.2-7.12l-8.16-82.8L354.27,76l7.79,79q1.19,12-1,20.57a23.61,23.61,0,0,1-9.15,13.6Q345,194.18,331.81,195.47Z" style="fill:#92E3A9;stroke:#263238;stroke-linecap:round;stroke-linejoin:round"></path><path d="M381.8,188.83,370.52,74.38l25.29-2.49,11.28,114.45Z" style="fill:#92E3A9;stroke:#263238;stroke-linecap:round;stroke-linejoin:round"></path><path d="M419.81,185.09l-1.51-15.26L438.19,85l-26.71,2.63-1.68-17.1,51.57-5.08,1.41,14.27-20.21,85.88,28.68-2.83,1.68,17.1Z" style="fill:#92E3A9;stroke:#263238;stroke-linecap:round;stroke-linejoin:round"></path><rect x="304.67" y="201.19" width="104.84" height="46.76" transform="translate(-20.04 35.57) rotate(-5.55)" style="fill:#263238"></rect><path d="M327.09,241.73a7.41,7.41,0,0,1-4.17-.65,6.7,6.7,0,0,1-2.75-2.66,12,12,0,0,1-1.39-4.2l3.4-1.29a16.44,16.44,0,0,0,.75,2.86,5.28,5.28,0,0,0,1.43,2.17,3.57,3.57,0,0,0,4.66-.42,3.55,3.55,0,0,0,.55-2.54,5.06,5.06,0,0,0-1.17-3,16.42,16.42,0,0,0-2.43-2.15l-5.16-3.73a8.06,8.06,0,0,1-2.32-2.47,8.71,8.71,0,0,1-1-3.51,6.44,6.44,0,0,1,1.31-5,6.78,6.78,0,0,1,4.69-2.18,9,9,0,0,1,3,.15,5.25,5.25,0,0,1,2.27,1.14,6.86,6.86,0,0,1,1.58,2.15,12.72,12.72,0,0,1,1,3.17l-3.26,1.23a13.61,13.61,0,0,0-.67-2.52,3.77,3.77,0,0,0-1.28-1.78,3.21,3.21,0,0,0-2.32-.5,3.14,3.14,0,0,0-2.21,1,3.06,3.06,0,0,0-.6,2.4,4.65,4.65,0,0,0,.64,2.09,6.52,6.52,0,0,0,1.58,1.57l5.2,3.73a14.68,14.68,0,0,1,3.15,3.06,8.52,8.52,0,0,1,1.67,4.47,7.16,7.16,0,0,1-.53,3.7,5.84,5.84,0,0,1-2.16,2.55A7.4,7.4,0,0,1,327.09,241.73Z" style="fill:#92E3A9"></path><path d="M336.9,240.46l-2.74-28.29,3.94-.38L339.29,224l7.26-.7-1.19-12.23,3.95-.38L352.06,239l-3.95.38-1.28-13.24-7.27.71,1.29,13.23Z" style="fill:#92E3A9"></path><path d="M363.75,238.17a8.28,8.28,0,0,1-4.68-.68,6.13,6.13,0,0,1-2.75-3,14.55,14.55,0,0,1-1.21-4.8l-1-10.73a13.82,13.82,0,0,1,.28-4.87,6,6,0,0,1,2.15-3.31,8.55,8.55,0,0,1,4.45-1.51,8.43,8.43,0,0,1,4.65.64,6.2,6.2,0,0,1,2.72,2.84,13.63,13.63,0,0,1,1.22,4.71l1,10.76a14,14,0,0,1-.28,4.89,6.37,6.37,0,0,1-2.12,3.43A8,8,0,0,1,363.75,238.17Zm-.3-3.11a3.67,3.67,0,0,0,2.31-.88,3.16,3.16,0,0,0,.91-1.92,12.11,12.11,0,0,0,0-2.77l-1.2-12.39a11.4,11.4,0,0,0-.54-2.68,3,3,0,0,0-1.26-1.64,3.79,3.79,0,0,0-2.43-.38,3.94,3.94,0,0,0-2.33.84,3,3,0,0,0-.93,1.85,11.26,11.26,0,0,0,0,2.74l1.2,12.39a12.66,12.66,0,0,0,.55,2.72,3.18,3.18,0,0,0,1.28,1.71A3.87,3.87,0,0,0,363.45,235.06Z" style="fill:#92E3A9"></path><path d="M379,236.37l-7.35-27.84,3.28-.32,5,20,1.84-20.59,2.8-.27,5.81,20,1-20.71,3.21-.32L392.78,235l-2.87.28-6-20.57L382,236.08Z" style="fill:#92E3A9"></path></g><g id="freepik--speech-bubble--inject-3"><path d="M174.32,55.23H142.8a13.49,13.49,0,0,0-13.49,13.48V82A13.49,13.49,0,0,0,142.8,95.44H144L139.42,107l12.45-11.58h22.45A13.48,13.48,0,0,0,187.8,82V68.71A13.48,13.48,0,0,0,174.32,55.23Z" style="fill:#fff;stroke:#263238;stroke-linecap:round;stroke-linejoin:round"></path><path d="M147.25,76.91a2.87,2.87,0,1,1-2.86-2.86A2.86,2.86,0,0,1,147.25,76.91Z" style="fill:#263238"></path><path d="M162,76.91a2.87,2.87,0,1,1-2.87-2.86A2.86,2.86,0,0,1,162,76.91Z" style="fill:#263238"></path><path d="M176.81,76.91A2.86,2.86,0,1,1,174,74.05,2.86,2.86,0,0,1,176.81,76.91Z" style="fill:#263238"></path></g><g id="freepik--character-3--inject-3"><path d="M610.37,283.26s-.56,22.12,3,38.65,8.39,36.64,8.39,36.64.31,16.28,1.31,25.95,7.17,44,7.17,44l.1,5.34s-10.93,8.9-13.5,9.67.16,3.56,3.44,4.32,13.3-2.29,14.84-3,6.89-.76,8.75-3.56-.53-8.14-.43-11.71,2.51-44.26,2.73-52.4.48-26.21.78-27.73S648.08,329,648.08,329s8.32,66.4,8.54,67.67,4,36.89,4,36.89,1,10.68,3.19,13.22,7,4.58,9.09,2.8,2.63-3.3,1-8.65-2.83-7.88-2.79-9.41,4.56-26.71,5.59-45.28,1.86-30,1.86-30,7.57-25.19,9.1-43.76a131.41,131.41,0,0,0-1.83-34.34l-73.47-2Z" style="fill:#fff;stroke:#263238;stroke-linecap:round;stroke-linejoin:round"></path><path d="M685.88,278.16l-73.47-2-2,7.14s-.56,22.12,3,38.65,8.39,36.64,8.39,36.64.31,16.28,1.31,25.95c.5,4.77,2.25,15.56,3.9,25.26,3.34,1.38,9,2.36,17.54-.32.71-12.8,1.53-27.73,1.66-32.32.23-8.14.48-26.2.78-27.73S648.08,329,648.08,329s8.32,66.4,8.54,67.67c.09.53.81,7.1,1.63,14.55a35.39,35.39,0,0,0,16-1c1-7.72,2-16.39,2.46-24,1-18.57,1.86-30,1.86-30s7.57-25.19,9.1-43.76A131.41,131.41,0,0,0,685.88,278.16Z" style="fill:#263238;stroke:#263238;stroke-linecap:round;stroke-linejoin:round"></path><path d="M660.67,433.6s1,10.68,3.19,13.22,7,4.58,9.09,2.8,2.63-3.3,1-8.65-2.83-7.88-2.79-9.41a14.77,14.77,0,0,0-4.55-1C664.57,430.54,660.67,433.6,660.67,433.6Z" style="fill:#263238;stroke:#263238;stroke-linecap:round;stroke-linejoin:round"></path><path d="M635.83,178.8s-12.37,3.13-17.38,8.8-10.23,24.55-10.83,25.26S592.05,234.48,589,239.07,578.15,256.63,575.14,259s-4.69,3.49-4.69,3.49-6.61,0-8.45.18-4.22-.18-4.81,1.1a60.46,60.46,0,0,0-1.65,6.62s13.6-.37,15.45-.74a23.25,23.25,0,0,0,6.68-2.57c1.68-1.1,22.9-21.78,26.7-26.38s10.48-12,11.25-13.07,5.26-7.23,5.26-7.23-1.86-10,3.38-18.78,10.21-16.65,11.28-18.81A5.13,5.13,0,0,0,635.83,178.8Z" style="fill:#fff;stroke:#263238;stroke-linecap:round;stroke-linejoin:round"></path><path d="M566,265.17l-6.4,2.27s-5.78-.83-6,.62.13,2.63,1.92,2.35,12.52-.91,12.52-.91" style="fill:#fff;stroke:#263238;stroke-linecap:round;stroke-linejoin:round"></path><path d="M636.8,131s-5.39,1.09-6.51,4.29,3,11.2,3.32,13.43,2.23,12.2.78,16-6.15,5.34-6.15,5.34a14,14,0,0,0,7,5.62c4.89,1.84,9.71-3.56,9.71-3.56s-5.62-28.73-5.29-33.44.39-9.57.39-9.57Z" style="fill:#263238;stroke:#263238;stroke-linecap:round;stroke-linejoin:round"></path><path d="M658.88,177.17s7.28,2.22,11.62,3.33,12,2.7,13,4.21-5.62,8.79-5.62,8.79l-10.28,20.14s-6.47-12.41-8.27-20.77A44.47,44.47,0,0,1,658.88,177.17Z" style="fill:#fff;stroke:#263238;stroke-linecap:round;stroke-linejoin:round"></path><path d="M640.27,177.29s-3.66.55-5.43,2.57-16.2,20.17-17.06,29,5.18,22.24,5.75,26.88-4.08,13.22-8.13,25.29a111.45,111.45,0,0,0-5,22.27s16.35,4.41,39.09,4.18,36.87-7.66,36.87-7.66a224.5,224.5,0,0,0-5.78-25.57c-3.41-10.91-7.06-12.94-7.38-18.28s-8.35-37.83-9.67-45.32-1.11-10.5-2.86-12l-1.76-1.47Z" style="fill:#92E3A9;stroke:#263238;stroke-linecap:round;stroke-linejoin:round"></path><line x1="643.97" y1="235.89" x2="646.93" y2="237.97" style="fill:none;stroke:#263238;stroke-linecap:round;stroke-linejoin:round"></line><line x1="628.01" y1="224.62" x2="641.9" y2="234.42" style="fill:none;stroke:#263238;stroke-linecap:round;stroke-linejoin:round"></line><line x1="642.47" y1="230.18" x2="648.78" y2="233.89" style="fill:none;stroke:#263238;stroke-linecap:round;stroke-linejoin:round"></line><path d="M640.46,170.7s-3.11,10.34-3.18,11.37,6.73,5,12.12,4.07,9.84-5.47,9.84-5.47l.59-20.48Z" style="fill:#fff;stroke:#263238;stroke-linecap:round;stroke-linejoin:round"></path><path d="M638.33,132.39s-3.74,4.7-4.45,8.51-.23,11.35-.38,13.56-.53,7.35.89,10.22,3.34,8.63,6,9.34,5.72,2.56,15.28-5.1c2.41-1.92,4.3-5.93,4.3-5.93a73.36,73.36,0,0,0,1.87-13.64c.45-8.39-3.46-13.58-9.32-16.34S639.78,130.68,638.33,132.39Z" style="fill:#fff;stroke:#263238;stroke-linecap:round;stroke-linejoin:round"></path><path d="M637.3,134.41s10.54-.72,12.63,1,2.71,5.58,4,8.74,7.59,7.41,7.59,7.41-.15,4.13-.44,8.25-2.6,9.47-1.69,15.27,11.06,6.53,13.35,5.45,5.66-6.83,5.66-6.83-3.26-4-3.39-8.27,2.13-11.27,2.39-18.93-7-17.43-10.86-19.51-10.83-3.57-19.19-2.32-11.6,1-11.69,4.36A8.17,8.17,0,0,0,637.3,134.41Z" style="fill:#263238;stroke:#263238;stroke-linecap:round;stroke-linejoin:round"></path><path d="M659.71,151.47s4.13-3.95,5.52-2.71.31,8-1.31,10-4.63,2.75-5.2.36" style="fill:#fff;stroke:#263238;stroke-linecap:round;stroke-linejoin:round"></path><path d="M641.87,153.05s-3,2.82-2,3.75a6.32,6.32,0,0,0,3,1.17" style="fill:none;stroke:#263238;stroke-linecap:round;stroke-linejoin:round"></path><path d="M639.05,161.49a9,9,0,0,0,6.62.44c3.77-1.17,3.8-2.34,3.8-2.34" style="fill:none;stroke:#263238;stroke-linecap:round;stroke-linejoin:round"></path><path d="M639.26,150.28c-.07,1-.62,1.75-1.23,1.72s-1-.84-1-1.81.62-1.75,1.23-1.72S639.33,149.31,639.26,150.28Z" style="fill:#263238"></path><path d="M647.88,150.66c-.07,1-.62,1.74-1.23,1.72s-1-.84-1-1.82.62-1.74,1.23-1.71S648,149.69,647.88,150.66Z" style="fill:#263238"></path><path d="M635.27,146.13s0-2.13,4.22-.76" style="fill:none;stroke:#263238;stroke-linecap:round;stroke-linejoin:round"></path><path d="M644.92,145.51s4.36-1,6.39,1.61" style="fill:none;stroke:#263238;stroke-linecap:round;stroke-linejoin:round"></path><path d="M625.67,266.56a5.92,5.92,0,0,1-3,1.2c-2.19.4-4.58.4-3.18,2s5.17.6,5.17.6Z" style="fill:#fff;stroke:#263238;stroke-linecap:round;stroke-linejoin:round"></path><path d="M672.31,196.26l-4.41,18.66-4.23,7.81s-3.3,5.78-6.81,13.41c-2.54,5.52-11.6,25.95-12.38,26.83s-9.46,1.72-11.09,1.43-6.1-1.86-7.12-.82-2.8,8.48-2.8,8.48a4.73,4.73,0,0,0,1.4.82c.72.23,11.73.75,11.73.75l3.83-1.6a3,3,0,0,0,3.4,1.13c2.1-.78,5.7-3.87,6.19-5.12s20.66-26.3,24-32.16,9.21-18.69,11.24-22.72,7-11.63,4.6-20.19a13.59,13.59,0,0,0-10-9.94L676,184.09" style="fill:#fff;stroke:#263238;stroke-linecap:round;stroke-linejoin:round"></path><line x1="635.19" y1="266.89" x2="633.33" y2="272.46" style="fill:none;stroke:#263238;stroke-linecap:round;stroke-linejoin:round"></line><line x1="631.68" y1="264.62" x2="629.21" y2="272.87" style="fill:none;stroke:#263238;stroke-linecap:round;stroke-linejoin:round"></line><line x1="629" y1="264" x2="624.87" y2="272.88" style="fill:none;stroke:#263238;stroke-linecap:round;stroke-linejoin:round"></line><polyline points="640.43 272.03 639.52 270.4 637.46 270.19" style="fill:none;stroke:#263238;stroke-linecap:round;stroke-linejoin:round"></polyline><path d="M634,432.58c-1.77-.51-3.6,1.27-3.6,1.27s-10.93,8.9-13.5,9.67.16,3.56,3.44,4.32,13.3-2.29,14.84-3,6.89-.76,8.75-3.56c1.3-2,.53-5.14,0-8.09l-6.45,3S635.76,433.09,634,432.58Z" style="fill:#263238;stroke:#263238;stroke-linecap:round;stroke-linejoin:round"></path><polygon points="620.91 453.15 580.02 453.15 584.73 301.38 616.19 301.38 620.91 453.15" style="fill:#fff;stroke:#263238;stroke-linecap:round;stroke-linejoin:round"></polygon><rect x="590.23" y="264.43" width="20.47" height="6.49" style="fill:#92E3A9;stroke:#263238;stroke-linecap:round;stroke-linejoin:round"></rect><polygon points="652.63 309.95 568.6 309.95 558.1 269.6 663.14 269.6 652.63 309.95" style="fill:#fff;stroke:#263238;stroke-linecap:round;stroke-linejoin:round"></polygon><polygon points="634.16 309.95 550.13 309.95 539.63 269.6 644.66 269.6 634.16 309.95" style="fill:#fff;stroke:#263238;stroke-linecap:round;stroke-linejoin:round"></polygon><rect x="565.26" y="276.41" width="52.93" height="21.47" style="fill:#263238;stroke:#263238;stroke-linecap:round;stroke-linejoin:round"></rect><path d="M577.65,292.16v-1a2.36,2.36,0,0,1-1.84-.8,3.66,3.66,0,0,1-.66-2.15l1.53-.3a5.53,5.53,0,0,0,.13,1,1.38,1.38,0,0,0,.35.66.81.81,0,0,0,.61.24.71.71,0,0,0,.62-.26,1.05,1.05,0,0,0,.19-.66,1.71,1.71,0,0,0-.3-1,4.7,4.7,0,0,0-.76-.81l-1.23-1.09a4.85,4.85,0,0,1-.59-.62,2.69,2.69,0,0,1-.4-.75,3.13,3.13,0,0,1-.14-1,2.31,2.31,0,0,1,.62-1.71,2.47,2.47,0,0,1,1.68-.68v-1H578v1a2.27,2.27,0,0,1,1,.28,1.88,1.88,0,0,1,.63.59,2.79,2.79,0,0,1,.34.83,4.18,4.18,0,0,1,.14.94l-1.51.27a6.13,6.13,0,0,0-.1-.82,1,1,0,0,0-.27-.58.67.67,0,0,0-.58-.18.76.76,0,0,0-.62.26,1,1,0,0,0-.21.63,1.42,1.42,0,0,0,.23.84,4.06,4.06,0,0,0,.57.63l1.22,1.07a6.3,6.3,0,0,1,.71.75,3.61,3.61,0,0,1,.53.91,3.2,3.2,0,0,1,.2,1.16,2.57,2.57,0,0,1-.26,1.16,2.11,2.11,0,0,1-.72.82,2.66,2.66,0,0,1-1.12.38v1Z" style="fill:#fff"></path><path d="M581.13,291v-1.17l2.4-3.71c.18-.27.35-.53.5-.78a4.06,4.06,0,0,0,.39-.78,2.46,2.46,0,0,0,.15-.88,1.5,1.5,0,0,0-.2-.83.65.65,0,0,0-.6-.28.84.84,0,0,0-.6.21,1.19,1.19,0,0,0-.29.57,3.57,3.57,0,0,0-.08.77v.4h-1.63v-.43a4.17,4.17,0,0,1,.26-1.52,2.07,2.07,0,0,1,.82-1,2.64,2.64,0,0,1,1.48-.38,2.43,2.43,0,0,1,1.87.68,2.65,2.65,0,0,1,.62,1.87,3.06,3.06,0,0,1-.17,1.08,4.73,4.73,0,0,1-.44.94c-.18.29-.38.59-.6.91l-2,3h3V291Z" style="fill:#fff"></path><path d="M587.36,292.66l-.17-.59a1.27,1.27,0,0,0,.56-.35A1,1,0,0,0,588,291h-.86v-1.62h1.6v1.48a1.94,1.94,0,0,1-.34,1.2A1.52,1.52,0,0,1,587.36,292.66Z" style="fill:#fff"></path><path d="M592.2,291.16a3,3,0,0,1-1.38-.28A1.74,1.74,0,0,1,590,290a3.22,3.22,0,0,1-.26-1.35v-.13h1.59a2.21,2.21,0,0,0,.16,1,.69.69,0,0,0,.69.33.64.64,0,0,0,.5-.2A1.28,1.28,0,0,0,593,289a7.29,7.29,0,0,0,.08-1.17V286.7a1.06,1.06,0,0,1-.5.43,2,2,0,0,1-.81.17,1.85,1.85,0,0,1-1.24-.36,2.09,2.09,0,0,1-.66-1,5.53,5.53,0,0,1,.06-3.15,2.32,2.32,0,0,1,.81-1.14,2.81,2.81,0,0,1,2.94,0,2.17,2.17,0,0,1,.82,1.11,4.52,4.52,0,0,1,.26,1.62v3.44a6.13,6.13,0,0,1-.22,1.72,2.35,2.35,0,0,1-.77,1.21A2.31,2.31,0,0,1,592.2,291.16Zm0-5.12a.75.75,0,0,0,.53-.17,1.34,1.34,0,0,0,.32-.36V284a3.57,3.57,0,0,0-.07-.76,1.13,1.13,0,0,0-.26-.55.66.66,0,0,0-.53-.21.64.64,0,0,0-.52.21,1.27,1.27,0,0,0-.26.6,4.84,4.84,0,0,0-.07.9,8.93,8.93,0,0,0,0,.94,1.32,1.32,0,0,0,.22.66A.68.68,0,0,0,592.21,286Z" style="fill:#fff"></path><path d="M598.4,291.18a2.64,2.64,0,0,1-1.5-.36,1.8,1.8,0,0,1-.74-1,5.14,5.14,0,0,1-.21-1.55h1.62a5.47,5.47,0,0,0,.07.87,1.11,1.11,0,0,0,.26.59.74.74,0,0,0,.59.19.63.63,0,0,0,.59-.27,1.63,1.63,0,0,0,.22-.75c0-.32.05-.7.05-1.14a5.7,5.7,0,0,0-.07-1,1.34,1.34,0,0,0-.25-.65.73.73,0,0,0-.6-.24.75.75,0,0,0-.58.24,1.47,1.47,0,0,0-.34.62h-1.42l.09-5.42h4.37v1.49h-3l-.09,2.34a1.28,1.28,0,0,1,.52-.35,2.28,2.28,0,0,1,.76-.15A1.85,1.85,0,0,1,600,285a2.09,2.09,0,0,1,.71,1,5.27,5.27,0,0,1,.23,1.64,8.77,8.77,0,0,1-.11,1.41,3,3,0,0,1-.37,1.12,1.92,1.92,0,0,1-.78.74A2.69,2.69,0,0,1,598.4,291.18Z" style="fill:#fff"></path><path d="M602.18,291l1.93-8.45h-2.62v-1.27h4.26v1l-2,8.7Z" style="fill:#fff"></path></g><g id="freepik--character-2--inject-3"><path d="M474.94,427l-6.46,7.68s-12.4,4.54-13.27,5.41-.52,2.62,1.22,3.14,21.47.53,23.39.18,8-2.62,8.9-2.62,5.59,0,7-.18,2.27-3.49,2.09-7S474.94,427,474.94,427Z" style="fill:#fff;stroke:#263238;stroke-linecap:round;stroke-linejoin:round"></path><path d="M463.94,271s1.4,64.4,4,82.9S476.68,416,476.68,416s-1.92,3.84-1.92,5.06.18,5.94.18,5.94,8.9,3,14.66,4.71a43.32,43.32,0,0,0,8.2,1.92l.52-21.64-.87-52.19-.26-91.92-32.38.11Z" style="fill:#92E3A9;stroke:#263238;stroke-linecap:round;stroke-linejoin:round"></path><path d="M457.09,183.53,451,241l-10,12.69,3.08,4.81,20.57-5.77a105.14,105.14,0,0,0,0-32.88C461.74,202.15,457.09,183.53,457.09,183.53Z" style="fill:#9e9e9e;stroke:#263238;stroke-linecap:round;stroke-linejoin:round"></path><path d="M477,172.27s-18.82,9.25-19.9,11.26-.46,25.29.62,30.38,3.7,27.92,3.7,27.92.93,26.68,1.54,27.92,4.94,2.93,4.94,2.93l55.68-.16c1.08,0,1.7-.3,2-3.23a48.8,48.8,0,0,0-.47-8.49s.77-75.42.31-76.81-19.28-11-21.59-11.72-7.25-2.47-8.33-2.78S482.08,170.57,477,172.27Z" style="fill:#9e9e9e;stroke:#263238;stroke-linecap:round;stroke-linejoin:round"></path><path d="M476.76,171.2l-2.18,3.72s-.9,11.67-1.29,13.46-2.56,6.28-1.66,6.54,10.64-6.67,10.64-6.67,6.67,7.06,7.82,7.95,2.18.9,2.44.13,5-16.8,5.9-19.87,1.28-5.65.38-7.06a7.41,7.41,0,0,0-3-2.26l-17.48,2Z" style="fill:#9e9e9e;stroke:#263238;stroke-linecap:round;stroke-linejoin:round"></path><path d="M476.76,171.2s2.05,10.26,2.05,13.85,0,6.79.51,7.69,6.92-6.67,6.92-6.67,7.95-10.77,8.47-12.82,1.41-10,1.41-10S484.19,172.48,476.76,171.2Z" style="fill:#fff;stroke:#263238;stroke-linecap:round;stroke-linejoin:round"></path><polyline points="508.1 212.97 520.38 220.72 506.64 217.17" style="fill:none;stroke:#263238;stroke-linecap:round;stroke-linejoin:round"></polyline><path d="M500.07,433.48s-3.32,3.14-4.19,3.84-6.63,4.54-9.42,6.11-.7,4.71,4.18,5.06,20.95-1.57,25.84-2.79,5.41-1.75,5.41-4S505.48,432.78,500.07,433.48Z" style="fill:#fff;stroke:#263238;stroke-linecap:round;stroke-linejoin:round"></path><path d="M488.38,302.57s3.14,40.32,4.18,50.27,9.26,72.43,9.26,72.43-1.58,2.45-1.58,4.19-.17,4-.17,4a27.94,27.94,0,0,1,6.63,2.44c3.84,1.92,14.14,5.76,15.19,5.76s2.09-2.27,2.27-2.79-1.4-5.94-1.4-9.25.7-45.56,1.22-52.89,0-31.24,0-31.24l1.57-65.46-1-12.39-39.63,2.62" style="fill:#92E3A9;stroke:#263238;stroke-linecap:round;stroke-linejoin:round"></path><path d="M467.27,146.45a4.59,4.59,0,0,0-2.31,4.11c.13,2.82,3.59,7.82,3.59,7.82Z" style="fill:#fff;stroke:#263238;stroke-linecap:round;stroke-linejoin:round"></path><path d="M468.55,129s-3.08,3.34-3.85,6.29,1.5,6.89,1.5,6.89l4.14-13.3S470,128.37,468.55,129Z" style="fill:#263238;stroke:#263238;stroke-linecap:round;stroke-linejoin:round"></path><path d="M468.61,130.52s-2.82,8.45-2.41,11.67.8,8.65,1.41,12.08,1.6,8.45,3.42,11.46,7,7.45,8,8.25,2.82,1.41,6,.21,9.06-5.44,10.66-7.05,4.83-12.67,5-18.31-.21-15.09-1.61-16.7-16.71-4-20.53-4A23.81,23.81,0,0,0,468.61,130.52Z" style="fill:#fff;stroke:#263238;stroke-linecap:round;stroke-linejoin:round"></path><path d="M468,124.53s-2.57.25-1.8,2.56,5,5.9,8.85,6.54,14.36.38,16.28.26,3.85-.13,3.59.77S492.4,139.27,493,140a37.26,37.26,0,0,0,2.95,2.69s.51,7.7.9,8.47,1.79.51,1.79.51,2.05-.13,2.44-1A45.34,45.34,0,0,0,503,137.86c0-6-1.66-10.9-4.1-12.57s-15.9-4.74-21.54-3.46A78.48,78.48,0,0,0,468,124.53Z" style="fill:#263238;stroke:#263238;stroke-linecap:round;stroke-linejoin:round"></path><path d="M497.91,153.76s1.8-5.26,3.72-5,2.18,3.33.64,7.05-4.49,4.75-4.61,3.72" style="fill:#fff;stroke:#263238;stroke-linecap:round;stroke-linejoin:round"></path><path d="M476.88,146.84s-.12,4.36-.89,6.15-2.06,2.44-1.16,3.34,2.18,2.18,3.46,1.66" style="fill:none;stroke:#263238;stroke-linecap:round;stroke-linejoin:round"></path><path d="M476,161.71s3.72,1.28,6,.51,4.49-3.71,4.49-3.71" style="fill:none;stroke:#263238;stroke-linecap:round;stroke-linejoin:round"></path><path d="M485,149c0,1.06-.49,1.92-1.09,1.92s-1.09-.86-1.09-1.92.49-1.93,1.09-1.93S485,148,485,149Z" style="fill:#263238"></path><ellipse cx="472.4" cy="149.02" rx="1.09" ry="1.92" style="fill:#263238"></ellipse><path d="M469.45,144.79s3.59-2.31,5.51-.13" style="fill:none;stroke:#263238;stroke-linecap:round;stroke-linejoin:round"></path><path d="M480.73,142.22s4.62-1,6.8,2.18" style="fill:none;stroke:#263238;stroke-linecap:round;stroke-linejoin:round"></path><path d="M442.3,242.46s4.18,4.91,4.54,5,4.67.71,5.15.48,3.95-3.71,6.22-4.67,5.26-.24,4.78,1.08-4.06,2.75-5.62,5.26-6.7,5.74-8.25,6.58a15,15,0,0,0-2.28,1.44s-3,2.87-5.14,3.47-5.63-1.44-6-2a43.33,43.33,0,0,1-1.31-4.54l6.94-9.46Z" style="fill:#fff;stroke:#263238;stroke-linecap:round;stroke-linejoin:round"></path><path d="M441.7,241.5s-3,.48-3.11,1.44a39.23,39.23,0,0,0,1.43,7.54,1.8,1.8,0,0,0,2.39,1.31c.84-.23,1.92-2.51,1.8-3.47S443.49,241.15,441.7,241.5Z" style="fill:#fff;stroke:#263238;stroke-linecap:round;stroke-linejoin:round"></path><path d="M438.59,245.81s-3.95,1.2-3.95,2.75,2.15,8.62,3,8.74,2.75-.36,3-1.32S438.59,245.81,438.59,245.81Z" style="fill:#fff;stroke:#263238;stroke-linecap:round;stroke-linejoin:round"></path><path d="M435.12,251.08a19.75,19.75,0,0,0-2.64,2.75c-.24.6,1.44,5.5,2.16,6.22s2.27.84,2.39-.6S435.12,251.08,435.12,251.08Z" style="fill:#fff;stroke:#263238;stroke-linecap:round;stroke-linejoin:round"></path><path d="M433.56,257.3s-1.79,1.31-1.91,2-.84,3.47.83,4.07,2.16-3.35,2.16-3.35Z" style="fill:none;stroke:#263238;stroke-linecap:round;stroke-linejoin:round"></path><polygon points="473.61 453.15 432.72 453.15 437.44 301.38 468.9 301.38 473.61 453.15" style="fill:#fff;stroke:#263238;stroke-linecap:round;stroke-linejoin:round"></polygon><rect x="442.93" y="264.43" width="20.47" height="6.49" style="fill:#92E3A9;stroke:#263238;stroke-linecap:round;stroke-linejoin:round"></rect><polygon points="505.34 309.95 421.31 309.95 410.81 269.6 515.85 269.6 505.34 309.95" style="fill:#fff;stroke:#263238;stroke-linecap:round;stroke-linejoin:round"></polygon><polygon points="486.87 309.95 402.84 309.95 392.33 269.6 497.37 269.6 486.87 309.95" style="fill:#fff;stroke:#263238;stroke-linecap:round;stroke-linejoin:round"></polygon><rect x="417.97" y="276.41" width="52.93" height="21.47" style="fill:#263238;stroke:#263238;stroke-linecap:round;stroke-linejoin:round"></rect><path d="M430.45,292.16v-1a2.34,2.34,0,0,1-1.84-.8,3.66,3.66,0,0,1-.67-2.15l1.54-.3a5.53,5.53,0,0,0,.13,1,1.37,1.37,0,0,0,.34.66.84.84,0,0,0,.62.24.71.71,0,0,0,.62-.26,1.12,1.12,0,0,0,.19-.66,1.71,1.71,0,0,0-.3-1,4.7,4.7,0,0,0-.76-.81l-1.24-1.09a4.75,4.75,0,0,1-.58-.62,2.69,2.69,0,0,1-.4-.75,2.85,2.85,0,0,1-.14-1,2.27,2.27,0,0,1,.62-1.71,2.47,2.47,0,0,1,1.68-.68v-1h.52v1a2.23,2.23,0,0,1,1,.28,1.71,1.71,0,0,1,.63.59,2.56,2.56,0,0,1,.35.83,4.84,4.84,0,0,1,.14.94l-1.51.27a6.13,6.13,0,0,0-.1-.82,1.16,1.16,0,0,0-.27-.58.67.67,0,0,0-.58-.18.76.76,0,0,0-.62.26,1,1,0,0,0-.21.63,1.42,1.42,0,0,0,.23.84,4.53,4.53,0,0,0,.56.63l1.23,1.07a7.22,7.22,0,0,1,.71.75,3.61,3.61,0,0,1,.53.91,3.2,3.2,0,0,1,.2,1.16,2.57,2.57,0,0,1-.26,1.16,2.06,2.06,0,0,1-.73.82,2.57,2.57,0,0,1-1.11.38v1Z" style="fill:#fff"></path><path d="M436.44,291.18a2.76,2.76,0,0,1-1.47-.35,1.94,1.94,0,0,1-.81-1,3.9,3.9,0,0,1-.25-1.47v-.33h1.64v.28a4,4,0,0,0,.09.78.82.82,0,0,0,.27.5.81.81,0,0,0,.54.16.77.77,0,0,0,.56-.17,1,1,0,0,0,.25-.53,4,4,0,0,0,.07-.83,2.37,2.37,0,0,0-.24-1.17,1,1,0,0,0-.9-.46h-.28v-1.34h.25a1.08,1.08,0,0,0,.92-.35,1.94,1.94,0,0,0,.25-1.1,2,2,0,0,0-.19-1,.72.72,0,0,0-.71-.34.66.66,0,0,0-.69.38,2.49,2.49,0,0,0-.19,1v.37h-1.64v-.47a3.16,3.16,0,0,1,.29-1.41,2,2,0,0,1,.86-.89,2.77,2.77,0,0,1,1.37-.31,2.94,2.94,0,0,1,1.39.3,2,2,0,0,1,.86.87,3.12,3.12,0,0,1,.29,1.4,2.56,2.56,0,0,1-.36,1.42,1.74,1.74,0,0,1-.92.72,1.56,1.56,0,0,1,.67.41,2.06,2.06,0,0,1,.45.77,3.55,3.55,0,0,1,.16,1.15,4.57,4.57,0,0,1-.24,1.54,2.16,2.16,0,0,1-.81,1A2.68,2.68,0,0,1,436.44,291.18Z" style="fill:#fff"></path><path d="M440.15,292.66l-.17-.59a1.18,1.18,0,0,0,.55-.35,1,1,0,0,0,.23-.69h-.86v-1.62h1.59v1.48a1.94,1.94,0,0,1-.33,1.2A1.55,1.55,0,0,1,440.15,292.66Z" style="fill:#fff"></path><path d="M445.24,291v-2.38h-2.91v-1.42l2.53-5.92h1.94v6h1v1.33h-1V291Zm-1.52-3.71h1.52V283.1Z" style="fill:#fff"></path><path d="M451,291.18a2.64,2.64,0,0,1-1.5-.36,1.8,1.8,0,0,1-.74-1,5.16,5.16,0,0,1-.2-1.55h1.62a5.57,5.57,0,0,0,.06.87,1.12,1.12,0,0,0,.27.59.71.71,0,0,0,.58.19.63.63,0,0,0,.59-.27,1.63,1.63,0,0,0,.22-.75c0-.32.05-.7.05-1.14a7.05,7.05,0,0,0-.06-1,1.34,1.34,0,0,0-.26-.65.73.73,0,0,0-.6-.24.77.77,0,0,0-.58.24,1.36,1.36,0,0,0-.33.62h-1.43l.09-5.42h4.37v1.49h-3l-.1,2.34a1.28,1.28,0,0,1,.52-.35,2.28,2.28,0,0,1,.76-.15,1.83,1.83,0,0,1,1.25.32,2.09,2.09,0,0,1,.71,1,5.27,5.27,0,0,1,.23,1.64,10.16,10.16,0,0,1-.1,1.41,3.21,3.21,0,0,1-.38,1.12,1.86,1.86,0,0,1-.78.74A2.69,2.69,0,0,1,451,291.18Z" style="fill:#fff"></path><path d="M457,291.16a3,3,0,0,1-1.38-.28,1.74,1.74,0,0,1-.79-.84,3.22,3.22,0,0,1-.26-1.35v-.13h1.59a2.21,2.21,0,0,0,.16,1,.69.69,0,0,0,.69.33.64.64,0,0,0,.5-.2,1.28,1.28,0,0,0,.27-.63,7.29,7.29,0,0,0,.08-1.17V286.7a1.06,1.06,0,0,1-.5.43,2,2,0,0,1-.81.17,1.85,1.85,0,0,1-1.24-.36,2.09,2.09,0,0,1-.66-1,5.53,5.53,0,0,1,.06-3.15,2.32,2.32,0,0,1,.81-1.14,2.81,2.81,0,0,1,2.94,0,2.17,2.17,0,0,1,.82,1.11,4.52,4.52,0,0,1,.26,1.62v3.44a6.13,6.13,0,0,1-.22,1.72,2.35,2.35,0,0,1-.77,1.21A2.31,2.31,0,0,1,457,291.16Zm0-5.12a.75.75,0,0,0,.53-.17,1.53,1.53,0,0,0,.32-.36V284a3.57,3.57,0,0,0-.07-.76,1.13,1.13,0,0,0-.26-.55.66.66,0,0,0-.53-.21.64.64,0,0,0-.52.21,1.27,1.27,0,0,0-.26.6,4.84,4.84,0,0,0-.07.9,8.93,8.93,0,0,0,0,.94,1.23,1.23,0,0,0,.22.66A.68.68,0,0,0,457,286Z" style="fill:#fff"></path><path d="M513.08,207.74,524.8,240.9l-18.5,12,6,9.1s19.9-9.1,24.37-11.26,8.48-5.56,8.79-9.57-17.12-51.82-18.2-54.6-2.47-3.39-2.93-3.39-5.4,7.09-8.79,12.8" style="fill:#9e9e9e;stroke:#263238;stroke-linecap:round;stroke-linejoin:round"></path><path d="M526,240s6-4.94,8.33-5.55,5.4,1.23,5.4,1.23" style="fill:none;stroke:#263238;stroke-linecap:round;stroke-linejoin:round"></path><line x1="509.07" y1="251.39" x2="514.32" y2="260.65" style="fill:#fff;stroke:#263238;stroke-linecap:round;stroke-linejoin:round"></line><path d="M506.3,252.94l-5.25,1.69s-4.63.77-6.32,1.85a27.32,27.32,0,0,1-5.4,3.09c-1.85.62-4.78.46-4.47,1.69s2.93,1.7,4.16,1.7a70.64,70.64,0,0,0,7.25-1.54s-6.48,7.09-8,9.56-2.93,4.48-2,4.94,2-.46,2.78-.93,8.17-7.09,8.17-7.09-4.31,7.4-5.24,8.48-.62,1.85.62,1.85a8.19,8.19,0,0,0,3.08-1.08,6.4,6.4,0,0,0,2.47-.46l3.39-2s.93.16,2.78-1.23S511.23,263,511.23,263l1.08-.92Z" style="fill:#fff;stroke:#263238;stroke-linecap:round;stroke-linejoin:round"></path><path d="M495.65,277.15a74.13,74.13,0,0,0,5.56-6.94" style="fill:none;stroke:#263238;stroke-linecap:round;stroke-linejoin:round"></path><path d="M501.51,274.68a21.91,21.91,0,0,0,2.16-3.54" style="fill:none;stroke:#263238;stroke-linecap:round;stroke-linejoin:round"></path></g><g id="freepik--character-1--inject-3"><path d="M180.09,201.57l-4.41,7L185.79,217l3.49-3.49s4.59-.91,5.69-2.2,4.77-7.35,4.77-7.35l2.58-3.49-15.8-9.18Z" style="fill:#fff;stroke:#263238;stroke-linecap:round;stroke-linejoin:round"></path><polygon points="185.24 193.3 203.97 204.69 207.09 176.96 179.91 167.96 178.07 190.36 185.24 193.3" style="fill:#fff;stroke:#263238;stroke-linecap:round;stroke-linejoin:round"></polygon><path d="M179.54,206.71s-.92-8.08-.73-9.55,3.3-6.43,3.49-8.63-.55-4.23.55-4.23,2.2,1.47,2.94,3.49-.55,5.51-.55,5.51,2.2,4.59,2.38,7.16a12.56,12.56,0,0,1-.92,5.15" style="fill:#fff;stroke:#263238;stroke-linecap:round;stroke-linejoin:round"></path><polygon points="175.69 208.55 187.43 217.76 184.45 221.96 172.03 212.16 175.69 208.55" style="fill:#fff;stroke:#263238;stroke-linecap:round;stroke-linejoin:round"></polygon><path d="M172.91,210.76l13.47,12.42S162.59,245.4,160.66,247s-6.64,2.1-6.64,2.1l-4.55-39L147.37,187l8,37.78Z" style="fill:#263238;stroke:#263238;stroke-linecap:round;stroke-linejoin:round"></path><path d="M83.62,288.46l3.58,34.33s-8.11,56.27-10,72.95-3.82,42.68-3.82,43.87-1,8.58,0,9.77,8.11,4.06,12.4,4.53,11.68.24,14.54.24,7.15-.47,6.68-3.81a8.56,8.56,0,0,0-4.3-6c-1.43-1-4-5.25-4-5.25l-.24-4.05a16,16,0,0,0-1-4.53,28,28,0,0,1-1.19-5.72s15.25-35.76,16.45-41.72,14.54-58.41,14.54-58.41l11.68,57.22s8.82,33.37,10,38.86,3.58,22.41,3.58,23.6a51.79,51.79,0,0,0,1.19,6s3.34.71,6,1,6,.24,6,.24.72-2.38,2.15-2.38,1.9,1.43,4.53,2.14,11.44.72,14.3,0a6.25,6.25,0,0,0,4.53-4.29c.24-1.19-1.43-1.67-2.62-1.67a43.61,43.61,0,0,1-5.25-.95s-7.63-7.15-8.58-8.11-1.91-5-2.62-6.2a36.1,36.1,0,0,1-2.15-3.33c-.24-.72,0-33.86,0-36.24s-1.9-53.64-4-62.7-6.2-33.61-6.2-33.61Z" style="fill:#263238;stroke:#263238;stroke-linecap:round;stroke-linejoin:round"></path><path d="M98.71,160.34s-25.57,18-27.7,22.25-2.6,12.55-2.6,15.87,14.91,45.69,14.91,45.69l-8.76,49.48S98,308.31,125,307.6s42.38-13.74,42.38-13.74l-13-56.34S149.14,183.3,148,180s-6.39-7.34-9.23-8.52S125,167.2,125,167.2,108.65,159.39,98.71,160.34Z" style="fill:#263238;stroke:#263238;stroke-linecap:round;stroke-linejoin:round"></path><path d="M111.73,184.49,134,220.24s-4-33.86-4.27-39.54a43.42,43.42,0,0,0-1.65-10.18l-25.81-5.21Z" style="fill:#fff;stroke:#263238;stroke-linecap:round;stroke-linejoin:round"></path><path d="M123.81,176.2l5.91,4.5-2.36-7.81S123.09,173.6,123.81,176.2Z" style="fill:#fff;stroke:#263238;stroke-linecap:round;stroke-linejoin:round"></path><path d="M135.57,120.18s.43-2.27-3.22-4-15.61-3.44-23.26-.17-13,10-13,16.37,6.56,21.07,7,21.52-1.73.58-1.75,1.66l0,2.16,17.39,19.12,1.5,7.5s3.28-9,3.94-9.56,6.9-4.14,7.63-4.18,3.21.23,4.5-1.87,6.05-11.16,6.05-11.16,3.63-4,3.33-5.34-3.82-4.68-4-6.52,1.62-3.85,1.73-8.34-2.12-11.19-4-14.29A7.75,7.75,0,0,0,135.57,120.18Z" style="fill:#fff;stroke:#263238;stroke-linecap:round;stroke-linejoin:round"></path><path d="M133.16,129.3c.27-3.38-7.85-6.34-7.22-8.75s9.63-.37,9.63-.37.43-2.27-3.22-4-15.61-3.44-23.26-.17-13,10-13,16.37c.09,6.1,6.09,20,6.94,21.41l.08.11a29.35,29.35,0,0,0,10,1.67c5.78,0,8.28-2.79,8.28-2.79a6.94,6.94,0,0,1-4-5.62c-.48-4.24,2.76-9.06,5.51-9.27s2.77,1.6,2.86,3.06,2.09,2.37,3.68,1.59-.34-4.94-.36-5.85S132.89,132.68,133.16,129.3Z" style="fill:#263238;stroke:#263238;stroke-linecap:round;stroke-linejoin:round"></path><path d="M138.91,145c-.2,1.06-.71,1.85-1.14,1.77s-.63-1-.43-2.06.71-1.86,1.14-1.78S139.11,143.93,138.91,145Z" style="fill:#263238"></path><path d="M137.3,139.09s1.75-1.66,3.51-.43" style="fill:none;stroke:#263238;stroke-linecap:round;stroke-linejoin:round"></path><path d="M138.79,161.21s-3-1.45-3-4.52c0,0-1.6,4.76-.48,5.51S138.79,161.21,138.79,161.21Z" style="fill:none;stroke:#263238;stroke-linecap:round;stroke-linejoin:round"></path><path d="M121.4,152.75l2.23-.31a8.89,8.89,0,0,0,.5,4.07" style="fill:none;stroke:#263238;stroke-linecap:round;stroke-linejoin:round"></path><polygon points="101.35 157.69 98.71 160.34 112.92 186.38 118.74 176.81 101.35 157.69" style="fill:#fff;stroke:#263238;stroke-linecap:round;stroke-linejoin:round"></polygon><path d="M95.4,185.43l33.85,34.33,46.85,6.55,1.18,18.94s-55.61,2.92-58.92,2-39.77-33.86-39.77-33.86" style="fill:#263238;stroke:#263238;stroke-linecap:round;stroke-linejoin:round"></path><path d="M186.94,224.84s4.18-6.37,4.5-7,3.49-1.82,5.48-2.7a22,22,0,0,0,5.41-3.21c.87-.89,2.56.57,2.4,1.93s-3.66,4.18-3.66,4.18,15.07-.25,15.57-.19,2.17.65,2.13,2a2.8,2.8,0,0,1-2.19,2.49c-.9.13-4.48.69-6.16,1.11s-4.9,1.14-4.9,1.14a65.63,65.63,0,0,1,1.62,7.1c.23,2.16-1.7,6.56-3.15,7.13s-6.61.8-9.13.87-6,.12-6.4.08-6.73-.34-6.73-.34l.64-12.21Z" style="fill:#fff;stroke:#263238;stroke-linecap:round;stroke-linejoin:round"></path><path d="M201.07,218.08a46.63,46.63,0,0,0-5.79,1.16" style="fill:#fff;stroke:#263238;stroke-linecap:round;stroke-linejoin:round"></path><polygon points="176.09 226.31 182.5 226.52 182.88 241.32 177.16 241.2 176.09 226.31" style="fill:#fff;stroke:#263238;stroke-linecap:round;stroke-linejoin:round"></polygon></g></svg>
