<svg xmlns="http://www.w3.org/2000/svg" viewBox="0 0 750 500"><g id="freepik--background-simple--inject-58"><path d="M591.43,66.69C519.72,57.35,479,97.12,382.59,101.45,286.84,94,250.33,52.89,177.76,59.85,99.68,67.33,39.2,169.07,56.41,270.85S180.27,429.52,234.79,429.17c43.58-.28,82.07-18,131.76-22.26,49.15,5.88,85.72,24.85,129.19,26.57,54.39,2.16,166.82-51.12,194.68-152.15S668.59,76.73,591.43,66.69Z" style="fill:#92E3A9"></path><path d="M591.43,66.69C519.72,57.35,479,97.12,382.59,101.45,286.84,94,250.33,52.89,177.76,59.85,99.68,67.33,39.2,169.07,56.41,270.85S180.27,429.52,234.79,429.17c43.58-.28,82.07-18,131.76-22.26,49.15,5.88,85.72,24.85,129.19,26.57,54.39,2.16,166.82-51.12,194.68-152.15S668.59,76.73,591.43,66.69Z" style="fill:#fff;opacity:0.7000000000000001"></path></g><g id="freepik--Plants--inject-58"><path d="M78.25,329.05s10.86,17.36,15.4,34.15C96.88,375.13,97,398.82,97,398.82s.22-70.29,16.39-97.5" style="fill:none;stroke:#263238;stroke-linecap:round;stroke-linejoin:round"></path><path d="M122.15,240.47s-15.66,25.16-20,51.35S96.74,383,96.74,383c-.26-13.61-2.32-63.42-6.68-85a161.71,161.71,0,0,0-12.32-37.23" style="fill:none;stroke:#263238;stroke-linecap:round;stroke-linejoin:round"></path><path d="M81.13,268.39s13.11.61,19.23-9.23,2.1-19.25-3.66-19.94-8.25,6.43-10.38,3,6.12-9.84-3.13-15.75S69.64,229.05,66.7,226s-.82-10.95-6.92-14.42-9,.85-12.34,1-14-5.59-18.27-1.09,5.92,15.4,1.14,15.72-6.71,9.64-2.83,15.66,16.36,8.41,13.93,11.55-14.36,2.95-9.51,10,21.35,7.49,23.72,8.33S48,275.42,49.71,282s15.39,7.4,24.2,3.17S81.13,268.39,81.13,268.39Z" style="fill:#92E3A9"></path><path d="M43.31,224s27.84,18.2,37.82,44.38" style="fill:none;stroke:#263238;stroke-linecap:round;stroke-linejoin:round"></path><polyline points="41.95 236.76 60.61 238.58 56.06 223.1" style="fill:none;stroke:#263238;stroke-linecap:round;stroke-linejoin:round"></polyline><polyline points="56.97 258.15 75.63 258.15 77 241.31" style="fill:none;stroke:#263238;stroke-linecap:round;stroke-linejoin:round"></polyline><path d="M119.53,246.09s-10.64.5-15.61-7.49-1.7-15.63,3-16.18,6.7,5.21,8.43,2.44-5-8,2.53-12.78,11,2.08,13.39-.38.67-8.88,5.62-11.7,7.27.69,10,.8,11.38-4.53,14.83-.88-4.81,12.5-.93,12.76,5.45,7.82,2.3,12.71-13.28,6.83-11.3,9.38,11.65,2.39,7.71,8.1-17.33,6.09-19.26,6.77,6.17,2.16,4.8,7.5-12.49,6-19.64,2.57S119.53,246.09,119.53,246.09Z" style="fill:#92E3A9"></path><path d="M150.23,210.07s-22.6,14.77-30.7,36" style="fill:none;stroke:#263238;stroke-linecap:round;stroke-linejoin:round"></path><polyline points="151.34 220.41 136.19 221.89 139.88 209.33" style="fill:none;stroke:#263238;stroke-linecap:round;stroke-linejoin:round"></polyline><polyline points="139.14 237.78 123.99 237.78 122.88 224.11" style="fill:none;stroke:#263238;stroke-linecap:round;stroke-linejoin:round"></polyline><path d="M84.72,341.38s8.63.4,12.66-6.08,1.38-12.68-2.41-13.13-5.43,4.23-6.84,2,4-6.48-2.06-10.37-8.92,1.69-10.85-.3-.54-7.21-4.57-9.5-5.89.56-8.12.66-9.24-3.69-12-.72,3.89,10.14.75,10.35-4.42,6.35-1.87,10.31,10.78,5.54,9.18,7.61-9.46,1.94-6.26,6.58,14.06,4.93,15.62,5.48-5,1.75-3.89,6.09,10.13,4.87,15.93,2.09S84.72,341.38,84.72,341.38Z" style="fill:#92E3A9"></path><path d="M59.81,312.15s18.34,12,24.91,29.23" style="fill:none;stroke:#263238;stroke-linecap:round;stroke-linejoin:round"></path><polyline points="58.91 320.54 71.2 321.74 68.2 311.55" style="fill:none;stroke:#263238;stroke-linecap:round;stroke-linejoin:round"></polyline><polyline points="68.81 334.63 81.1 334.63 82 323.54" style="fill:none;stroke:#263238;stroke-linecap:round;stroke-linejoin:round"></polyline><path d="M110.32,307.57s-13-1.75-17.27-12.52,1.38-19.31,7.17-19,7,7.8,9.67,4.82-4.26-10.77,5.9-14.93,12.88,4.95,16.3,2.49,2.77-10.62,9.4-13,8.66,2.44,12,3.19,14.79-3,18.17,2.2S163,275,167.68,276.17s4.88,10.68,0,15.91-17.61,5.35-15.77,8.87,13.6,5.48,7.56,11.53-22.34,3.55-24.83,3.95,7,4,4.17,10.15-16.46,4.53-24.38-1.21S110.32,307.57,110.32,307.57Z" style="fill:#92E3A9"></path><path d="M155.47,270.67s-30.65,12.93-45.15,36.9" style="fill:none;stroke:#263238;stroke-linecap:round;stroke-linejoin:round"></path><polyline points="154.53 283.46 135.84 281.91 143.09 267.5" style="fill:none;stroke:#263238;stroke-linecap:round;stroke-linejoin:round"></polyline><polyline points="135.92 301.82 117.56 298.48 119.23 281.67" style="fill:none;stroke:#263238;stroke-linecap:round;stroke-linejoin:round"></polyline><path d="M75.73,365.84c-.93,2.5-1.47,23.8-1.47,26.63,0,18.72,10.34,23.07,23.08,23.07s23.07-3.34,23.07-23.07c0-2.83-.53-24.13-1.46-26.63Z" style="fill:#263238;stroke:#263238;stroke-linecap:round;stroke-linejoin:round"></path><path d="M636.43,329.05s10.86,17.36,15.41,34.15c3.23,11.93,3.37,35.62,3.37,35.62s.22-70.29,16.4-97.5" style="fill:none;stroke:#263238;stroke-linecap:round;stroke-linejoin:round"></path><path d="M680.34,240.47s-15.67,25.16-20,51.35S654.92,383,654.92,383c-.26-13.61-2.31-63.42-6.68-85a161.15,161.15,0,0,0-12.32-37.23" style="fill:none;stroke:#263238;stroke-linecap:round;stroke-linejoin:round"></path><path d="M639.31,268.39s13.11.61,19.23-9.23,2.1-19.25-3.65-19.94-8.26,6.43-10.39,3,6.12-9.84-3.13-15.75-13.55,2.56-16.48-.46-.82-10.95-6.93-14.42-9,.85-12.34,1-14-5.59-18.27-1.09,5.92,15.4,1.14,15.72-6.71,9.64-2.83,15.66,16.36,8.41,13.93,11.55-14.36,2.95-9.5,10,21.34,7.49,23.71,8.33-7.59,2.66-5.91,9.24,15.39,7.4,24.2,3.17S639.31,268.39,639.31,268.39Z" style="fill:#92E3A9"></path><path d="M601.49,224s27.85,18.2,37.82,44.38" style="fill:none;stroke:#263238;stroke-linecap:round;stroke-linejoin:round"></path><polyline points="600.13 236.76 618.79 238.58 614.24 223.1" style="fill:none;stroke:#263238;stroke-linecap:round;stroke-linejoin:round"></polyline><polyline points="615.15 258.15 633.82 258.15 635.18 241.31" style="fill:none;stroke:#263238;stroke-linecap:round;stroke-linejoin:round"></polyline><path d="M677.71,246.09s-10.64.5-15.61-7.49-1.7-15.63,3-16.18,6.7,5.21,8.43,2.44-5-8,2.54-12.78,11,2.08,13.38-.38.67-8.88,5.62-11.7,7.28.69,10,.8,11.38-4.53,14.83-.88-4.8,12.5-.93,12.76,5.45,7.82,2.3,12.71S708,232.22,710,234.77s11.65,2.39,7.71,8.1-17.33,6.09-19.25,6.77,6.16,2.16,4.8,7.5-12.49,6-19.65,2.57S677.71,246.09,677.71,246.09Z" style="fill:#92E3A9"></path><path d="M708.41,210.07s-22.6,14.77-30.7,36" style="fill:none;stroke:#263238;stroke-linecap:round;stroke-linejoin:round"></path><polyline points="709.52 220.41 694.37 221.89 698.06 209.33" style="fill:none;stroke:#263238;stroke-linecap:round;stroke-linejoin:round"></polyline><polyline points="697.32 237.78 682.17 237.78 681.06 224.11" style="fill:none;stroke:#263238;stroke-linecap:round;stroke-linejoin:round"></polyline><path d="M642.9,341.38s8.63.4,12.66-6.08,1.38-12.68-2.41-13.13-5.43,4.23-6.83,2,4-6.48-2.06-10.37-8.93,1.69-10.86-.3-.54-7.21-4.56-9.5-5.9.56-8.13.66-9.23-3.69-12-.72,3.9,10.14.75,10.35-4.42,6.35-1.86,10.31,10.77,5.54,9.17,7.61-9.46,1.94-6.26,6.58,14.06,4.93,15.62,5.48-5,1.75-3.89,6.09,10.13,4.87,15.93,2.09S642.9,341.38,642.9,341.38Z" style="fill:#92E3A9"></path><path d="M618,312.15s18.34,12,24.91,29.23" style="fill:none;stroke:#263238;stroke-linecap:round;stroke-linejoin:round"></path><polyline points="617.09 320.54 629.39 321.74 626.39 311.55" style="fill:none;stroke:#263238;stroke-linecap:round;stroke-linejoin:round"></polyline><polyline points="626.99 334.63 639.28 334.63 640.18 323.54" style="fill:none;stroke:#263238;stroke-linecap:round;stroke-linejoin:round"></polyline><path d="M668.5,307.57s-13-1.75-17.27-12.52,1.38-19.31,7.17-19,7,7.8,9.67,4.82S663.81,270.14,674,266s12.88,4.95,16.31,2.49,2.76-10.62,9.39-13,8.66,2.44,12,3.19,14.8-3,18.17,2.2-8.58,14.09-3.94,15.26,4.88,10.68,0,15.91-17.6,5.35-15.77,8.87,13.6,5.48,7.56,11.53-22.34,3.55-24.82,3.95,7,4,4.16,10.15-16.46,4.53-24.38-1.21S668.5,307.57,668.5,307.57Z" style="fill:#92E3A9"></path><path d="M713.65,270.67S683,283.6,668.5,307.57" style="fill:none;stroke:#263238;stroke-linecap:round;stroke-linejoin:round"></path><polyline points="712.71 283.46 694.02 281.91 701.27 267.5" style="fill:none;stroke:#263238;stroke-linecap:round;stroke-linejoin:round"></polyline><polyline points="694.1 301.82 675.74 298.48 677.41 281.67" style="fill:none;stroke:#263238;stroke-linecap:round;stroke-linejoin:round"></polyline><path d="M633.91,365.84c-.93,2.5-1.46,23.8-1.46,26.63,0,18.72,10.33,23.07,23.07,23.07s23.08-3.34,23.08-23.07c0-2.83-.54-24.13-1.47-26.63Z" style="fill:#263238;stroke:#263238;stroke-linecap:round;stroke-linejoin:round"></path></g><g id="freepik--Floor--inject-58"><line x1="26.76" y1="415.78" x2="733.15" y2="415.78" style="fill:none;stroke:#263238;stroke-linecap:round;stroke-linejoin:round"></line></g><g id="freepik--Graphics--inject-58"><line x1="334.11" y1="302.09" x2="334.11" y2="319.44" style="fill:none;stroke:#263238;stroke-linecap:round;stroke-linejoin:round"></line><line x1="342.78" y1="310.76" x2="325.43" y2="310.76" style="fill:none;stroke:#263238;stroke-linecap:round;stroke-linejoin:round"></line><line x1="247.35" y1="80.3" x2="247.35" y2="97.65" style="fill:none;stroke:#263238;stroke-linecap:round;stroke-linejoin:round"></line><line x1="256.03" y1="88.98" x2="238.68" y2="88.98" style="fill:none;stroke:#263238;stroke-linecap:round;stroke-linejoin:round"></line><line x1="544.01" y1="288.88" x2="544.01" y2="299.07" style="fill:none;stroke:#263238;stroke-linecap:round;stroke-linejoin:round"></line><line x1="549.1" y1="293.98" x2="538.92" y2="293.98" style="fill:none;stroke:#263238;stroke-linecap:round;stroke-linejoin:round"></line><line x1="540.8" y1="102.18" x2="540.8" y2="112.36" style="fill:none;stroke:#263238;stroke-linecap:round;stroke-linejoin:round"></line><line x1="545.9" y1="107.27" x2="535.71" y2="107.27" style="fill:none;stroke:#263238;stroke-linecap:round;stroke-linejoin:round"></line><line x1="655.47" y1="161.4" x2="655.47" y2="171.58" style="fill:none;stroke:#263238;stroke-linecap:round;stroke-linejoin:round"></line><line x1="660.56" y1="166.49" x2="650.38" y2="166.49" style="fill:none;stroke:#263238;stroke-linecap:round;stroke-linejoin:round"></line><line x1="97.99" y1="223.25" x2="97.99" y2="233.44" style="fill:none;stroke:#263238;stroke-linecap:round;stroke-linejoin:round"></line><line x1="103.08" y1="228.35" x2="92.9" y2="228.35" style="fill:none;stroke:#263238;stroke-linecap:round;stroke-linejoin:round"></line><line x1="566.64" y1="301.52" x2="566.64" y2="311.7" style="fill:none;stroke:#263238;stroke-linecap:round;stroke-linejoin:round"></line><line x1="571.73" y1="306.61" x2="561.55" y2="306.61" style="fill:none;stroke:#263238;stroke-linecap:round;stroke-linejoin:round"></line><line x1="566.64" y1="377.71" x2="566.64" y2="387.89" style="fill:none;stroke:#263238;stroke-linecap:round;stroke-linejoin:round"></line><line x1="571.73" y1="382.8" x2="561.55" y2="382.8" style="fill:none;stroke:#263238;stroke-linecap:round;stroke-linejoin:round"></line><line x1="228.49" y1="380.54" x2="228.49" y2="390.72" style="fill:none;stroke:#263238;stroke-linecap:round;stroke-linejoin:round"></line><line x1="233.59" y1="385.63" x2="223.4" y2="385.63" style="fill:none;stroke:#263238;stroke-linecap:round;stroke-linejoin:round"></line><circle cx="491.39" cy="333.39" r="5.66" style="fill:none;stroke:#263238;stroke-linecap:round;stroke-linejoin:round"></circle><path d="M280.55,369.6a4.15,4.15,0,1,1-4.15-4.15A4.15,4.15,0,0,1,280.55,369.6Z" style="fill:none;stroke:#263238;stroke-linecap:round;stroke-linejoin:round"></path><path d="M487.24,84.45a3.4,3.4,0,1,1-3.39-3.4A3.39,3.39,0,0,1,487.24,84.45Z" style="fill:none;stroke:#263238;stroke-linecap:round;stroke-linejoin:round"></path><path d="M335.61,101.42a3.77,3.77,0,1,1-3.77-3.77A3.76,3.76,0,0,1,335.61,101.42Z" style="fill:none;stroke:#263238;stroke-linecap:round;stroke-linejoin:round"></path><path d="M677.35,215.33a3.78,3.78,0,1,1-3.78-3.77A3.77,3.77,0,0,1,677.35,215.33Z" style="fill:none;stroke:#263238;stroke-linecap:round;stroke-linejoin:round"></path><path d="M84.41,187a4.15,4.15,0,1,1-4.15-4.15A4.15,4.15,0,0,1,84.41,187Z" style="fill:none;stroke:#263238;stroke-linecap:round;stroke-linejoin:round"></path><circle cx="112.7" cy="104.82" r="2.64" style="fill:none;stroke:#263238;stroke-linecap:round;stroke-linejoin:round"></circle><circle cx="641.14" cy="78.04" r="2.64" style="fill:none;stroke:#263238;stroke-linecap:round;stroke-linejoin:round"></circle><path d="M199.07,370.36a3.4,3.4,0,1,1-3.39-3.4A3.39,3.39,0,0,1,199.07,370.36Z" style="fill:none;stroke:#263238;stroke-linecap:round;stroke-linejoin:round"></path><path d="M387.29,380.16a3.4,3.4,0,1,1-3.4-3.39A3.4,3.4,0,0,1,387.29,380.16Z" style="fill:none;stroke:#263238;stroke-linecap:round;stroke-linejoin:round"></path><circle cx="448.77" cy="403.93" r="2.26" style="fill:none;stroke:#263238;stroke-linecap:round;stroke-linejoin:round"></circle><circle cx="436.32" cy="281.34" r="3.39" style="fill:none;stroke:#263238;stroke-linecap:round;stroke-linejoin:round"></circle></g><g id="freepik--Board--inject-58"><rect x="178.1" y="121.79" width="408.14" height="146.19" style="fill:#fff;stroke:#263238;stroke-linecap:round;stroke-linejoin:round"></rect><line x1="270.23" y1="238.72" x2="270.23" y2="121.93" style="fill:none;stroke:#263238;stroke-linecap:round;stroke-linejoin:round"></line><line x1="270.23" y1="267.98" x2="270.23" y2="247.02" style="fill:none;stroke:#263238;stroke-linecap:round;stroke-linejoin:round"></line><line x1="354.03" y1="150.46" x2="354.03" y2="121.93" style="fill:none;stroke:#263238;stroke-linecap:round;stroke-linejoin:round"></line><line x1="354.03" y1="267.98" x2="354.03" y2="163.28" style="fill:none;stroke:#263238;stroke-linecap:round;stroke-linejoin:round"></line><line x1="408.24" y1="219.1" x2="408.24" y2="121.93" style="fill:none;stroke:#263238;stroke-linecap:round;stroke-linejoin:round"></line><line x1="408.24" y1="267.98" x2="408.24" y2="232.68" style="fill:none;stroke:#263238;stroke-linecap:round;stroke-linejoin:round"></line><line x1="491.04" y1="199.49" x2="491.04" y2="121.93" style="fill:none;stroke:#263238;stroke-linecap:round;stroke-linejoin:round"></line><line x1="491.04" y1="267.98" x2="491.04" y2="210.81" style="fill:none;stroke:#263238;stroke-linecap:round;stroke-linejoin:round"></line></g><g id="freepik--Text--inject-58"><path d="M218.41,253.25a18.43,18.43,0,0,1-10.81-3.07,19.26,19.26,0,0,1-6.57-7.82,22.93,22.93,0,0,1-2.19-9.71,26.05,26.05,0,0,1,3.14-13.3,28.67,28.67,0,0,1,8.25-9,56.54,56.54,0,0,1,11.25-6.21q6.14-2.55,12.12-4.6V191a15.52,15.52,0,0,0-.43-3.87,5.47,5.47,0,0,0-1.46-2.63,4.41,4.41,0,0,0-3.07-.95,4.93,4.93,0,0,0-3.14.88,4.7,4.7,0,0,0-1.54,2.41,17,17,0,0,0-.58,3.43l-.59,6.14-22.2-.88q.74-15.18,8.11-22.42t22.13-7.23q12.85,0,19.21,7.08t6.35,18.34v39.44c0,3.51.08,6.57.22,9.2s.34,4.92.59,6.87.46,3.6.65,5H236.53c-.3-2.23-.64-4.67-1-7.3a33.8,33.8,0,0,0-.87-4.67,21.44,21.44,0,0,1-5.48,9.35Q225.13,253.24,218.41,253.25Zm8.48-16.07a6.27,6.27,0,0,0,2.7-.59,8.11,8.11,0,0,0,2.26-1.6,15.93,15.93,0,0,0,1.75-2.05V209.86c-1.94,1.17-3.75,2.36-5.4,3.58a22,22,0,0,0-4.24,4,17,17,0,0,0-2.7,4.74,16.59,16.59,0,0,0-.95,5.77,11.5,11.5,0,0,0,1.75,6.72A5.59,5.59,0,0,0,226.89,237.18Z" style="fill:#263238"></path><path d="M312.78,253.25A35,35,0,0,1,297,250a23,23,0,0,1-10.08-9.64,31.27,31.27,0,0,1-3.5-15.27v-31q0-9,3.5-15.34a23,23,0,0,1,10.16-9.56,34.91,34.91,0,0,1,15.7-3.29q9.35,0,15.56,3.21a21.07,21.07,0,0,1,9.35,9.5q3.13,6.28,3.14,15.48V211H306.94v16.21a15.78,15.78,0,0,0,.73,5.26,5.58,5.58,0,0,0,2,2.92,5.37,5.37,0,0,0,3.07.88,6.19,6.19,0,0,0,3.14-.8,5.42,5.42,0,0,0,2.19-2.56,11.73,11.73,0,0,0,.81-4.82v-8.91h21.91v8.18q0,12.86-7.45,19.35T312.78,253.25Zm-5.84-53.32h12v-8.48a13.78,13.78,0,0,0-.81-5.26,5,5,0,0,0-2.19-2.63,7,7,0,0,0-3.29-.73,5.1,5.1,0,0,0-3,.88,5.78,5.78,0,0,0-2,3,19.37,19.37,0,0,0-.73,6.06Z" style="fill:#263238"></path><path d="M368.44,153v-16.5h23.95V153Zm.14,98.75V167.35h23.81v84.43Z" style="fill:#263238"></path><path d="M449.51,253.25a37.23,37.23,0,0,1-15.7-3.07A22.41,22.41,0,0,1,423.58,241Q420,234.83,420,225.64V193.5q0-9.21,3.58-15.34a22.39,22.39,0,0,1,10.23-9.2,41.71,41.71,0,0,1,31.41,0,22.73,22.73,0,0,1,10.29,9.2q3.66,6.14,3.66,15.34v32.14q0,9.2-3.66,15.33a22.75,22.75,0,0,1-10.29,9.21A37.31,37.31,0,0,1,449.51,253.25Zm.15-15.78a5.11,5.11,0,0,0,3.65-1.24,6.78,6.78,0,0,0,1.83-3.51,25.28,25.28,0,0,0,.51-5.48V191.89a25.35,25.35,0,0,0-.51-5.48,6.74,6.74,0,0,0-1.83-3.5,6,6,0,0,0-7.3,0,7,7,0,0,0-1.9,3.5,22.19,22.19,0,0,0-.59,5.48v35.35a22.13,22.13,0,0,0,.59,5.48,7.07,7.07,0,0,0,1.9,3.51A5.08,5.08,0,0,0,449.66,237.47Z" style="fill:#263238"></path><path d="M521.82,253.25a14.57,14.57,0,0,1-8.69-2.56,15.15,15.15,0,0,1-5.33-7.09A27.62,27.62,0,0,1,506,233.52V167.35h23.81v63.4a8.69,8.69,0,0,0,1.1,4.75q1.09,1.68,3.87,1.68a8,8,0,0,0,3.36-.81c1.17-.53,2.39-1.14,3.65-1.82v-67.2H565.5v84.43H541.83V244a39.4,39.4,0,0,1-9.56,6.72A23.34,23.34,0,0,1,521.82,253.25Z" style="fill:#263238"></path></g><g id="freepik--character-2--inject-58"><path d="M587.86,142.39s-3.61,3.8-4.18,8.56,3,7.8-.39,11-2.47,3.61-1.14,4.37,2.67,1.33,2.67,1.33,2.28,9.32,4.75,9.9,8.18-2.1,8.18-2.1l2.09,8.18-7,22.25,21.5-21.49-1.9-14.83s4-11.42.38-20.93S594,138.39,587.86,142.39Z" style="fill:#bfbfbf;stroke:#263238;stroke-linecap:round;stroke-linejoin:round"></path><path d="M589.76,158.94c0,.78-.42,1.42-1,1.42s-.95-.64-.95-1.42.43-1.43.95-1.43S589.76,158.15,589.76,158.94Z" style="fill:#263238"></path><path d="M587.1,155.13s.95-2.66,4,.19" style="fill:none;stroke:#263238;stroke-linecap:round;stroke-linejoin:round"></path><path d="M587.86,166.73s3,.76,5.33-2.85" style="fill:none;stroke:#263238;stroke-linecap:round;stroke-linejoin:round"></path><path d="M607.45,133.26s-10.46-5.71-16.17-4.95-2.09,3.81-2.09,3.81-15,4.56-12.93,8.18,12.17,3.8,12.17,3.8-4.37,2.66-.76,3.42a11.67,11.67,0,0,0,6.09-.19s-2.48,3.62.38,4.76,5.7-1.52,5.7-1.52-3.23,13.5-2.66,16.92,2.28,5.9,4.56,5.52,3.81-4,3.81-4-2.47,8.75,4,9.51,4.38-3.43,4.38-3.43,6.46,7.42,9.32,4.76-1.14-4.57-1.14-4.57,3.8,1,4-1.52a7.12,7.12,0,0,0-1-4.18s5.13-8.75,4.75-17.69-6.84-12.17-6.84-12.17,3.42-1.34,1.33-3.81-7.42-1.33-7.42-1.33-4.75-4.75-6.66-4.18A5.37,5.37,0,0,0,607.45,133.26Z" style="fill:#263238;stroke:#263238;stroke-linecap:round;stroke-linejoin:round"></path><path d="M592.52,290.28s-.41,39.52.4,43.16,22.42,50.46,24.32,56.74a76.74,76.74,0,0,1,2.19,8.22l-5.23,9.81s-9.56,5.11-6.24,5.32,16.16,1.25,16.67.4,6-8.55,8.62-12.61,5.67-5.47,4.45-8.91-8.3-4.66-10.53-7.9S611,330.61,611,330.61l3.64-37.69Z" style="fill:#bfbfbf;stroke:#263238;stroke-linecap:round;stroke-linejoin:round"></path><path d="M630.59,387.21a10.93,10.93,0,0,1-3.09-2.3c-.06,1-.19,8.14,5.72,16.46l0-.05a25.39,25.39,0,0,1,1.85-2.46A26.86,26.86,0,0,1,630.59,387.21Z" style="fill:#263238"></path><path d="M609.54,415.78a1.49,1.49,0,0,1,0-3c5-.13,10.7-.35,11.69-.5a20.53,20.53,0,0,0,7.22-6.4c3.73-5,10.55-10,10.84-10.23a1.49,1.49,0,1,1,1.77,2.4c-.07.05-6.76,5-10.23,9.62-4.27,5.69-8.42,7.35-8.6,7.42s-.94.37-12.61.67Z" style="fill:#263238"></path><path d="M602.5,292.45s1.72,26.82,5,37.85,12,68.1,12,68.1a51,51,0,0,1-6.27,6.08,57.5,57.5,0,0,1-10.46,5.71c-3.05,1.14-3.62,1.33-3.05,2.09S610.49,414,621,414c6.28,0,8.94-.38,10.27-1.52s.77-3.8.77-5.71-2.1-12.55-2.29-14.45.76-17.12.95-36.52-4-30.81-4-32.52.76-30.43.76-30.43Z" style="fill:#bfbfbf;stroke:#263238;stroke-linecap:round;stroke-linejoin:round"></path><path d="M630.2,395.46c-.23-1.32-.4-2.39-.47-3a35.74,35.74,0,0,1-11.07.93c.19,1.21.35,2.24.47,3A38.49,38.49,0,0,0,630.2,395.46Z" style="fill:#263238"></path><path d="M630.55,397.42a22.06,22.06,0,0,0-8.9,16.3c-2.12-4.17-4.33-8.53-5.82-11.54a30.45,30.45,0,0,1-2.34,2c1.09,2.21,2.67,5.33,4.93,9.75.84,0,1.69,0,2.53,0,1.4,0,2.61,0,3.68-.06a18.93,18.93,0,0,1,6.49-13.22C630.93,399.61,630.73,398.49,630.55,397.42Z" style="fill:#263238"></path><path d="M608.59,407.32c-.87.49-1.77,1-2.65,1.4l2,4.81q1.57.12,3.33.21Z" style="fill:#263238"></path><rect x="599.58" y="412.95" width="33.13" height="2.37" style="fill:#263238"></rect><polygon points="594.33 258.22 588.81 289.79 599.84 291.69 594.33 258.22" style="fill:#92E3A9;stroke:#263238;stroke-linecap:round;stroke-linejoin:round"></polygon><path d="M597.75,286.75s-10.84-1.9-11.22-1.14-.76,6.27.38,6.84,10.27,1.34,10.84,1S597.75,286.75,597.75,286.75Z" style="fill:#fff;stroke:#263238;stroke-linecap:round;stroke-linejoin:round"></path><path d="M592.61,251.56l3.62,40.51,35.19-.19s6.65-20.73,5.51-27.57a34,34,0,0,0-4.18-11.61Z" style="fill:#92E3A9;stroke:#263238;stroke-linecap:round;stroke-linejoin:round"></path><path d="M606.69,259.17a8.14,8.14,0,0,0,2.47,6.09,18.79,18.79,0,0,0,7.42,4.37" style="fill:none;stroke:#263238;stroke-linecap:round;stroke-linejoin:round"></path><line x1="617.15" y1="258.41" x2="617.91" y2="287.7" style="fill:#fff;stroke:#263238;stroke-linecap:round;stroke-linejoin:round"></line><path d="M594,289.6s-.19,6.28,1.33,6.47,35.56,1.14,36.9.57,2.09-2.28,2.09-4,.19-4-1.14-4.76-34.24-.95-35.38-1.14S593.76,286.37,594,289.6Z" style="fill:#fff;stroke:#263238;stroke-linecap:round;stroke-linejoin:round"></path><path d="M614.3,183.09s-17.12,14.84-20.54,19.21S587.67,213,587.86,219s-3,35.76-3,35.76a62.27,62.27,0,0,0,11.6,1.14c7.61.19,9.7,2.09,16.74,1.52s10.27-1.71,14.64-1.33a13.11,13.11,0,0,0,7.61-1.71s-2.19-16.72-6.47-37.47C625,197.55,617.34,181.38,614.3,183.09Z" style="fill:#fff;stroke:#263238;stroke-linecap:round;stroke-linejoin:round"></path><line x1="597.35" y1="224.37" x2="595.21" y2="245.6" style="fill:none;stroke:#263238;stroke-linecap:round;stroke-linejoin:round"></line><line x1="599.5" y1="217.72" x2="600.35" y2="236.6" style="fill:none;stroke:#263238;stroke-linecap:round;stroke-linejoin:round"></line><path d="M604.13,199.66l-1.64,39.22-30.8,21.76s-5.75-2.87-8-1.85-5.13,2.67-5.95,3.08-4.11-1.23-4.52.62,1.44,2.67,2.67,2.87l3.69.62s-4.72,5.75-3.69,6.57,4.1-.41,4.1-.41a36,36,0,0,0,7.6,2.05c3.49.41,10.06-8.62,10.06-8.62s34.7-15.2,36.14-17.45,7.19-38.2,7-45.59-5.75-9-10.26-8S604.54,197,604.13,199.66Z" style="fill:#bfbfbf;stroke:#263238;stroke-linecap:round;stroke-linejoin:round"></path></g><g id="freepik--character-1--inject-58"><path d="M185.78,148.75s.16,5.61,1.09,8.1,3.43,3.58,3.12,5.14-2.81,3.58-2.81,3.58-3,8.11-4.67,8.73-8.26-.16-8.26-.16-1.56,6.39-1.71,7.8-.32,2.49-.32,2.49l-10.12-3.12s4.2-6.39,5.45-17.14,1.56-13.4,1.56-13.4S183.29,145,185.78,148.75Z" style="fill:#fff;stroke:#263238;stroke-linecap:round;stroke-linejoin:round"></path><path d="M181.36,165.1a6.09,6.09,0,0,0,3.9,2.23" style="fill:none;stroke:#263238;stroke-linecap:round;stroke-linejoin:round"></path><path d="M183.9,155.92c.13.85-.17,1.61-.68,1.69s-1-.54-1.17-1.39.17-1.61.68-1.69S183.76,155.07,183.9,155.92Z" style="fill:#263238"></path><path d="M180,153.58s.94-1.87,4.06-2.19" style="fill:none;stroke:#263238;stroke-linecap:round;stroke-linejoin:round"></path><path d="M155.55,292.41l4.36,42.69s-4.83,11.85-4.51,22.13,2.33,42.07,2.33,42.07l10.44-.16s.31-20.1,4.21-31.94,4.67-28.67,4.67-33.19,6.7-11.14,5-41Z" style="fill:#263238;stroke:#263238;stroke-linecap:round;stroke-linejoin:round"></path><path d="M168.17,399.14s.09-5.68.76-12.78a38.84,38.84,0,0,1-12-.37c.45,7.47.82,13.31.82,13.31Z" style="fill:#fff;stroke:#263238;stroke-linecap:round;stroke-linejoin:round"></path><path d="M133.57,286.67l-3.7,44.13s-9,12.72-12.11,25.86S106.64,397,106.64,397l9.44,1.64s12-28.19,17.9-35.78,14.16-30,14.16-30,8-17.65,9.44-30L159,290.57Z" style="fill:#263238;stroke:#263238;stroke-linecap:round;stroke-linejoin:round"></path><path d="M111.18,381.86c-2.44,8.32-4.54,15.1-4.54,15.1l9.44,1.64s3-6.61,6.7-14.1A36.88,36.88,0,0,1,111.18,381.86Z" style="fill:#fff;stroke:#263238;stroke-linecap:round;stroke-linejoin:round"></path><path d="M129.69,277.92l-.78,9.66s13.86,4.83,19.63,6.23,15.89,2.81,22.75,2.34,17.14-1.87,17.14-1.87L187,283.53s-11.38,2.18-22.29.47a284.14,284.14,0,0,1-29.44-6.86C134.2,276.67,131.24,276.36,129.69,277.92Z" style="fill:#fff;stroke:#263238;stroke-linecap:round;stroke-linejoin:round"></path><path d="M180,192.06s-8.41-9.35-12.62-12.77-9.35-3.43-12.31-.94S141.53,198,141.37,210.92s-6.39,42.22-6.85,47.52-5.15,16.67-4.83,19.48,17.91,6.08,30.22,7.94,27-.31,27.58-.77,1.56-5.46,1.56-5.46-1.56-38.33-2-44.56-.16-23.84-2.34-31.32A55.2,55.2,0,0,0,180,192.06Z" style="fill:#92E3A9;stroke:#263238;stroke-linecap:round;stroke-linejoin:round"></path><path d="M197.15,262.34a29.25,29.25,0,0,0,6.86.31c3.43-.31,3.9-.47,4.68.47s1.24,2.64,4.36,3.11,4.52-.78,3.11,1.4a4.34,4.34,0,0,1-5.29,1.56c-.94-.62-1.87-1.4-1.87-1.4s-1.25.31.93,2.49,2.65,3,3.74,4.05,1.25,2,.47,2.5a3.71,3.71,0,0,1-3.43.62,13.06,13.06,0,0,0-3.43-.62c-.93,0-.15.47-2,.31s-2.34.16-3.59-.31l-2-.78s.15.78-1.56-1.87.31,0-1.71-2.65a24.54,24.54,0,0,0-3-3.43Z" style="fill:#fff;stroke:#263238;stroke-linecap:round;stroke-linejoin:round"></path><path d="M157.89,194.4s-3.27.47-3.74,11.22,3.65,40.22,5,43.34,19.72,17.74,21.28,19,5.46,1.55,6.08,1.4,3.58-4.68,6.23-7.48,2.34-5,1.56-7.48-9.66-10.6-11.22-12.62a51.45,51.45,0,0,1-3.58-5.45c-.63-1.1-.31-20.42-1.87-28s-4.37-11.84-6.08-13.56" style="fill:#92E3A9;stroke:#263238;stroke-linecap:round;stroke-linejoin:round"></path><polygon points="195.28 257.97 199.34 261.71 191.54 271.22 186.56 269.35 195.28 257.97" style="fill:#fff;stroke:#263238;stroke-linecap:round;stroke-linejoin:round"></polygon><path d="M169.64,394.53s-13.08-.84-14.07-.84-1.55,1.12-1.55,3.23.29,6.76.29,6.76-1,7-.57,8,.42,2.39,4.93,2.95,18.14,1.05,21.52,1.13c6.19.14,8-1.55,8.16-3.52s-7.32-3.66-9-4.92-8.3-7.88-8.3-7.88,2.53-4.79,2.67-6.47-2.53-2.82-3.38-2.68S169.64,394.53,169.64,394.53Z" style="fill:#fff;stroke:#263238;stroke-linecap:round;stroke-linejoin:round"></path><path d="M188.16,413.12c-7.91.82-19.76.67-25.13-1.28a46.88,46.88,0,0,0-9.35-2.32,7.45,7.45,0,0,0,.06,2.18c.42,1,.42,2.39,4.93,2.95s18.14,1.05,21.52,1.13C185.45,415.9,187.56,414.69,188.16,413.12Z" style="fill:#fff;stroke:#263238;stroke-linecap:round;stroke-linejoin:round"></path><path d="M103.77,395.16s6.33,1.27,8.86,1.83a6.63,6.63,0,0,1,3.45,1.61l2-4.14a3.7,3.7,0,0,1,2.81,1.4c1,1.41-2.11,4.65-2.11,4.65s1.55,3.65,2.53,5.62,7.32,5.63,7.32,6.76a2.51,2.51,0,0,1-2.11,2.39c-1.41.42-13.09.28-14.49.14s-10.55-1.27-11.68-1.55-1.26-2.39-.56-6.61a40.9,40.9,0,0,1,2.11-7.74C102.08,399.1,102.78,395.72,103.77,395.16Z" style="fill:#fff;stroke:#263238;stroke-linecap:round;stroke-linejoin:round"></path><path d="M121.35,412.89c-3.8-.57-6.75-2.39-12.24-3.1a79.74,79.74,0,0,0-9.56-.57c-.34,2.91-.09,4.42.84,4.65,1.13.28,10.27,1.41,11.68,1.55s13.08.28,14.49-.14a2.51,2.51,0,0,0,2.11-2.39A27.2,27.2,0,0,1,121.35,412.89Z" style="fill:#fff;stroke:#263238;stroke-linecap:round;stroke-linejoin:round"></path><path d="M174.56,151.71s-1.71,15.89-3.27,21.34.47,6.24-6.86,10-11.22,5.45-12.93,10.28-2,13.56-8.73,15.27-13.71.31-16.2-9.51,5.76-15.11,6.23-16-5.61,5.61-4.36-3.12,7.63-10.6,12.31-14.34,6-12.39,6-12.39l1.19-8.33S168,134.57,174.56,151.71Z" style="fill:#263238;stroke:#263238;stroke-linecap:round;stroke-linejoin:round"></path><path d="M146.73,153.18s7.44,3.12,21.37,1.92A26.37,26.37,0,0,0,188,143.82s-2.64-10.33-7.68-12.49-15.13-4.08-22.57,0-9.61,7-10.33,10.09S146.73,153.18,146.73,153.18Z" style="fill:#92E3A9;stroke:#263238;stroke-linecap:round;stroke-linejoin:round"></path><path d="M188,143.82s5.54,1.5,10.06.87,6.39-1.4,5.61.63-4.36,4.52-8.57,6.07-15.58,0-15.58,0S187.48,145.74,188,143.82Z" style="fill:#92E3A9;stroke:#263238;stroke-linecap:round;stroke-linejoin:round"></path></g></svg>
